  ISO-10303-21;
HEADER;
FILE_DESCRIPTION(('STEP AP214'),'1');
FILE_NAME('12.stp','2026-06-06T04:46:57',('Boonlert'),('None'),'Spatial InterOp 3D','Cimatron E 12.0',' ');
FILE_SCHEMA(('automotive_design'));
ENDSEC;
DATA;
#1=MECHANICAL_DESIGN_GEOMETRIC_PRESENTATION_REPRESENTATION(' ',(#10,#11,#12,#13,#14,#15,#16,#17,#18,#19,#20,#21,#22,#23,#24,#25,#26,#27,#28,#29,#30,#31,#32,#33,#34,#35,#36,#37,#38,#39,#40,#41,#42,#43,#44,#45,#46,#47,#48,#49,#50),#6);
#2=PRODUCT_DEFINITION_CONTEXT('',#51,'design');
#3=APPLICATION_PROTOCOL_DEFINITION('INTERNATIONAL STANDARD','automotive_design',1994,#51);
#4=PRODUCT_CATEGORY_RELATIONSHIP('NONE','NONE',#52,#53);
#5=SHAPE_DEFINITION_REPRESENTATION(#54,#55);
#6= (GEOMETRIC_REPRESENTATION_CONTEXT(3)GLOBAL_UNCERTAINTY_ASSIGNED_CONTEXT((#58))GLOBAL_UNIT_ASSIGNED_CONTEXT((#60,#61,#62))REPRESENTATION_CONTEXT('NONE','WORKSPACE'));
#10=STYLED_ITEM('',(#64),#65);
#11=STYLED_ITEM('',(#66),#67);
#12=STYLED_ITEM('',(#68),#69);
#13=STYLED_ITEM('',(#70),#71);
#14=STYLED_ITEM('',(#72),#73);
#15=STYLED_ITEM('',(#74),#75);
#16=STYLED_ITEM('',(#76),#77);
#17=STYLED_ITEM('',(#78),#79);
#18=STYLED_ITEM('',(#80),#81);
#19=STYLED_ITEM('',(#82),#83);
#20=STYLED_ITEM('',(#84),#85);
#21=STYLED_ITEM('',(#86),#87);
#22=STYLED_ITEM('',(#88),#89);
#23=STYLED_ITEM('',(#90),#91);
#24=STYLED_ITEM('',(#92),#93);
#25=STYLED_ITEM('',(#94),#95);
#26=STYLED_ITEM('',(#96),#97);
#27=STYLED_ITEM('',(#98),#99);
#28=STYLED_ITEM('',(#100),#101);
#29=STYLED_ITEM('',(#102),#103);
#30=STYLED_ITEM('',(#104),#105);
#31=STYLED_ITEM('',(#106),#107);
#32=STYLED_ITEM('',(#108),#109);
#33=STYLED_ITEM('',(#110),#111);
#34=STYLED_ITEM('',(#112),#113);
#35=STYLED_ITEM('',(#114),#115);
#36=STYLED_ITEM('',(#116),#117);
#37=STYLED_ITEM('',(#118),#119);
#38=STYLED_ITEM('',(#120),#121);
#39=STYLED_ITEM('',(#122),#123);
#40=STYLED_ITEM('',(#124),#125);
#41=STYLED_ITEM('',(#126),#127);
#42=STYLED_ITEM('',(#128),#129);
#43=STYLED_ITEM('',(#130),#131);
#44=STYLED_ITEM('',(#132),#133);
#45=STYLED_ITEM('',(#134),#135);
#46=STYLED_ITEM('',(#136),#137);
#47=STYLED_ITEM('',(#138),#139);
#48=STYLED_ITEM('',(#140),#141);
#49=STYLED_ITEM('',(#142),#143);
#50=STYLED_ITEM('',(#144),#145);
#51=APPLICATION_CONTEXT(' ');
#52=PRODUCT_CATEGORY('part','NONE');
#53=PRODUCT_RELATED_PRODUCT_CATEGORY('detail',' ',(#146));
#54=PRODUCT_DEFINITION_SHAPE('NONE','NONE',#147);
#55=ADVANCED_BREP_SHAPE_REPRESENTATION('1',(#145,#148),#6);
#58=UNCERTAINTY_MEASURE_WITH_UNIT(LENGTH_MEASURE(1.0E-006),#60,'','');
#60= (CONVERSION_BASED_UNIT('MILLIMETRE',#151)LENGTH_UNIT()NAMED_UNIT(#154));
#61= (NAMED_UNIT(#156)PLANE_ANGLE_UNIT()SI_UNIT($,.RADIAN.));
#62= (NAMED_UNIT(#156)SOLID_ANGLE_UNIT()SI_UNIT($,.STERADIAN.));
#64=PRESENTATION_STYLE_ASSIGNMENT((#162));
#65=ADVANCED_FACE('',(#163),#164,.T.);
#66=PRESENTATION_STYLE_ASSIGNMENT((#165));
#67=ADVANCED_FACE('',(#166),#167,.T.);
#68=PRESENTATION_STYLE_ASSIGNMENT((#168));
#69=ADVANCED_FACE('',(#169),#170,.T.);
#70=PRESENTATION_STYLE_ASSIGNMENT((#171));
#71=ADVANCED_FACE('',(#172),#173,.T.);
#72=PRESENTATION_STYLE_ASSIGNMENT((#174));
#73=ADVANCED_FACE('',(#175),#176,.T.);
#74=PRESENTATION_STYLE_ASSIGNMENT((#177));
#75=ADVANCED_FACE('',(#178),#179,.T.);
#76=PRESENTATION_STYLE_ASSIGNMENT((#180));
#77=ADVANCED_FACE('',(#181),#182,.T.);
#78=PRESENTATION_STYLE_ASSIGNMENT((#183));
#79=ADVANCED_FACE('',(#184),#185,.T.);
#80=PRESENTATION_STYLE_ASSIGNMENT((#186));
#81=ADVANCED_FACE('',(#187),#188,.T.);
#82=PRESENTATION_STYLE_ASSIGNMENT((#189));
#83=ADVANCED_FACE('',(#190),#191,.T.);
#84=PRESENTATION_STYLE_ASSIGNMENT((#192));
#85=ADVANCED_FACE('',(#193,#194),#195,.F.);
#86=PRESENTATION_STYLE_ASSIGNMENT((#196));
#87=ADVANCED_FACE('',(#197,#198),#199,.F.);
#88=PRESENTATION_STYLE_ASSIGNMENT((#200));
#89=ADVANCED_FACE('',(#201,#202),#203,.F.);
#90=PRESENTATION_STYLE_ASSIGNMENT((#204));
#91=EDGE_CURVE('',#205,#206,#207,.T.);
#92=PRESENTATION_STYLE_ASSIGNMENT((#208));
#93=EDGE_CURVE('',#209,#205,#210,.T.);
#94=PRESENTATION_STYLE_ASSIGNMENT((#211));
#95=EDGE_CURVE('',#212,#209,#213,.T.);
#96=PRESENTATION_STYLE_ASSIGNMENT((#214));
#97=EDGE_CURVE('',#215,#212,#216,.T.);
#98=PRESENTATION_STYLE_ASSIGNMENT((#217));
#99=EDGE_CURVE('',#218,#215,#219,.T.);
#100=PRESENTATION_STYLE_ASSIGNMENT((#220));
#101=EDGE_CURVE('',#221,#218,#222,.T.);
#102=PRESENTATION_STYLE_ASSIGNMENT((#223));
#103=EDGE_CURVE('',#224,#221,#225,.T.);
#104=PRESENTATION_STYLE_ASSIGNMENT((#226));
#105=EDGE_CURVE('',#206,#224,#227,.T.);
#106=PRESENTATION_STYLE_ASSIGNMENT((#228));
#107=EDGE_CURVE('',#229,#212,#230,.T.);
#108=PRESENTATION_STYLE_ASSIGNMENT((#231));
#109=EDGE_CURVE('',#232,#229,#233,.T.);
#110=PRESENTATION_STYLE_ASSIGNMENT((#234));
#111=EDGE_CURVE('',#232,#215,#235,.T.);
#112=PRESENTATION_STYLE_ASSIGNMENT((#236));
#113=EDGE_CURVE('',#237,#209,#238,.T.);
#114=PRESENTATION_STYLE_ASSIGNMENT((#239));
#115=EDGE_CURVE('',#229,#237,#240,.T.);
#116=PRESENTATION_STYLE_ASSIGNMENT((#241));
#117=EDGE_CURVE('',#242,#205,#243,.T.);
#118=PRESENTATION_STYLE_ASSIGNMENT((#244));
#119=EDGE_CURVE('',#237,#242,#245,.T.);
#120=PRESENTATION_STYLE_ASSIGNMENT((#246));
#121=EDGE_CURVE('',#247,#206,#248,.T.);
#122=PRESENTATION_STYLE_ASSIGNMENT((#249));
#123=EDGE_CURVE('',#242,#247,#250,.T.);
#124=PRESENTATION_STYLE_ASSIGNMENT((#251));
#125=EDGE_CURVE('',#252,#232,#253,.T.);
#126=PRESENTATION_STYLE_ASSIGNMENT((#254));
#127=EDGE_CURVE('',#252,#218,#255,.T.);
#128=PRESENTATION_STYLE_ASSIGNMENT((#256));
#129=EDGE_CURVE('',#257,#252,#258,.T.);
#130=PRESENTATION_STYLE_ASSIGNMENT((#259));
#131=EDGE_CURVE('',#257,#221,#260,.T.);
#132=PRESENTATION_STYLE_ASSIGNMENT((#261));
#133=EDGE_CURVE('',#262,#257,#263,.T.);
#134=PRESENTATION_STYLE_ASSIGNMENT((#264));
#135=EDGE_CURVE('',#262,#224,#265,.T.);
#136=PRESENTATION_STYLE_ASSIGNMENT((#266));
#137=EDGE_CURVE('',#247,#262,#267,.T.);
#138=PRESENTATION_STYLE_ASSIGNMENT((#268));
#139=EDGE_CURVE('',#269,#269,#270,.F.);
#140=PRESENTATION_STYLE_ASSIGNMENT((#271));
#141=EDGE_CURVE('',#272,#272,#273,.F.);
#142=PRESENTATION_STYLE_ASSIGNMENT((#274));
#143=EDGE_CURVE('',#275,#275,#276,.T.);
#144=PRESENTATION_STYLE_ASSIGNMENT((#277));
#145=MANIFOLD_SOLID_BREP('1',#278);
#146=PRODUCT('1','1','PART-1-DESC',(#279));
#147=PRODUCT_DEFINITION('NONE','NONE',#280,#2);
#148=AXIS2_PLACEMENT_3D('',#281,#282,#283);
#151=LENGTH_MEASURE_WITH_UNIT(LENGTH_MEASURE(1.0),#284);
#154=DIMENSIONAL_EXPONENTS(1.0,0.0,0.0,0.0,0.0,0.0,0.0);
#156=DIMENSIONAL_EXPONENTS(0.0,0.0,0.0,0.0,0.0,0.0,0.0);
#162=SURFACE_STYLE_USAGE(.BOTH.,#285);
#163=FACE_OUTER_BOUND('',#286,.T.);
#164=PLANE('',#287);
#165=SURFACE_STYLE_USAGE(.BOTH.,#288);
#166=FACE_OUTER_BOUND('',#289,.T.);
#167=PLANE('',#290);
#168=SURFACE_STYLE_USAGE(.BOTH.,#291);
#169=FACE_OUTER_BOUND('',#292,.T.);
#170=CYLINDRICAL_SURFACE('',#293,20.0);
#171=SURFACE_STYLE_USAGE(.BOTH.,#294);
#172=FACE_OUTER_BOUND('',#295,.T.);
#173=PLANE('',#296);
#174=SURFACE_STYLE_USAGE(.BOTH.,#297);
#175=FACE_OUTER_BOUND('',#298,.T.);
#176=CYLINDRICAL_SURFACE('',#299,20.0);
#177=SURFACE_STYLE_USAGE(.BOTH.,#300);
#178=FACE_OUTER_BOUND('',#301,.T.);
#179=CYLINDRICAL_SURFACE('',#302,20.0);
#180=SURFACE_STYLE_USAGE(.BOTH.,#303);
#181=FACE_OUTER_BOUND('',#304,.T.);
#182=PLANE('',#305);
#183=SURFACE_STYLE_USAGE(.BOTH.,#306);
#184=FACE_OUTER_BOUND('',#307,.T.);
#185=CYLINDRICAL_SURFACE('',#308,20.0);
#186=SURFACE_STYLE_USAGE(.BOTH.,#309);
#187=FACE_OUTER_BOUND('',#310,.T.);
#188=PLANE('',#311);
#189=SURFACE_STYLE_USAGE(.BOTH.,#312);
#190=FACE_OUTER_BOUND('',#313,.T.);
#191=PLANE('',#314);
#192=SURFACE_STYLE_USAGE(.BOTH.,#315);
#193=FACE_BOUND('',#316,.T.);
#194=FACE_BOUND('',#317,.T.);
#195=TOROIDAL_SURFACE('',#318,32.4005477489833,3.0);
#196=SURFACE_STYLE_USAGE(.BOTH.,#319);
#197=FACE_BOUND('',#320,.T.);
#198=FACE_BOUND('',#321,.T.);
#199=CONICAL_SURFACE('',#322,37.0,0.0191096075724192);
#200=SURFACE_STYLE_USAGE(.BOTH.,#323);
#201=FACE_OUTER_BOUND('',#324,.T.);
#202=FACE_BOUND('',#325,.T.);
#203=PLANE('',#326);
#204=CURVE_STYLE('',#327,POSITIVE_LENGTH_MEASURE(1.0E-006),#328);
#205=VERTEX_POINT('',#329);
#206=VERTEX_POINT('',#330);
#207=CIRCLE('',#331,20.0);
#208=CURVE_STYLE('',#332,POSITIVE_LENGTH_MEASURE(1.0E-006),#333);
#209=VERTEX_POINT('',#334);
#210=LINE('',#335,#336);
#211=CURVE_STYLE('',#337,POSITIVE_LENGTH_MEASURE(1.0E-006),#338);
#212=VERTEX_POINT('',#339);
#213=CIRCLE('',#340,20.0);
#214=CURVE_STYLE('',#341,POSITIVE_LENGTH_MEASURE(1.0E-006),#342);
#215=VERTEX_POINT('',#343);
#216=LINE('',#344,#345);
#217=CURVE_STYLE('',#346,POSITIVE_LENGTH_MEASURE(1.0E-006),#347);
#218=VERTEX_POINT('',#348);
#219=CIRCLE('',#349,20.0);
#220=CURVE_STYLE('',#350,POSITIVE_LENGTH_MEASURE(1.0E-006),#351);
#221=VERTEX_POINT('',#352);
#222=LINE('',#353,#354);
#223=CURVE_STYLE('',#355,POSITIVE_LENGTH_MEASURE(1.0E-006),#356);
#224=VERTEX_POINT('',#357);
#225=CIRCLE('',#358,20.0);
#226=CURVE_STYLE('',#359,POSITIVE_LENGTH_MEASURE(1.0E-006),#360);
#227=LINE('',#361,#362);
#228=CURVE_STYLE('',#363,POSITIVE_LENGTH_MEASURE(1.0E-006),#364);
#229=VERTEX_POINT('',#365);
#230=LINE('',#366,#367);
#231=CURVE_STYLE('',#368,POSITIVE_LENGTH_MEASURE(1.0E-006),#369);
#232=VERTEX_POINT('',#370);
#233=LINE('',#371,#372);
#234=CURVE_STYLE('',#373,POSITIVE_LENGTH_MEASURE(1.0E-006),#374);
#235=LINE('',#375,#376);
#236=CURVE_STYLE('',#377,POSITIVE_LENGTH_MEASURE(1.0E-006),#378);
#237=VERTEX_POINT('',#379);
#238=LINE('',#380,#381);
#239=CURVE_STYLE('',#382,POSITIVE_LENGTH_MEASURE(1.0E-006),#383);
#240=CIRCLE('',#384,20.0);
#241=CURVE_STYLE('',#385,POSITIVE_LENGTH_MEASURE(1.0E-006),#386);
#242=VERTEX_POINT('',#387);
#243=LINE('',#388,#389);
#244=CURVE_STYLE('',#390,POSITIVE_LENGTH_MEASURE(1.0E-006),#391);
#245=LINE('',#392,#393);
#246=CURVE_STYLE('',#394,POSITIVE_LENGTH_MEASURE(1.0E-006),#395);
#247=VERTEX_POINT('',#396);
#248=LINE('',#397,#398);
#249=CURVE_STYLE('',#399,POSITIVE_LENGTH_MEASURE(1.0E-006),#400);
#250=CIRCLE('',#401,20.0);
#251=CURVE_STYLE('',#402,POSITIVE_LENGTH_MEASURE(1.0E-006),#403);
#252=VERTEX_POINT('',#404);
#253=CIRCLE('',#405,20.0);
#254=CURVE_STYLE('',#406,POSITIVE_LENGTH_MEASURE(1.0E-006),#407);
#255=LINE('',#408,#409);
#256=CURVE_STYLE('',#410,POSITIVE_LENGTH_MEASURE(1.0E-006),#411);
#257=VERTEX_POINT('',#412);
#258=LINE('',#413,#414);
#259=CURVE_STYLE('',#415,POSITIVE_LENGTH_MEASURE(1.0E-006),#416);
#260=LINE('',#417,#418);
#261=CURVE_STYLE('',#419,POSITIVE_LENGTH_MEASURE(1.0E-006),#420);
#262=VERTEX_POINT('',#421);
#263=CIRCLE('',#422,20.0);
#264=CURVE_STYLE('',#423,POSITIVE_LENGTH_MEASURE(1.0E-006),#424);
#265=LINE('',#425,#426);
#266=CURVE_STYLE('',#427,POSITIVE_LENGTH_MEASURE(1.0E-006),#428);
#267=LINE('',#429,#430);
#268=CURVE_STYLE('',#431,POSITIVE_LENGTH_MEASURE(1.0E-006),#432);
#269=VERTEX_POINT('',#433);
#270=CIRCLE('',#434,32.4005477489833);
#271=CURVE_STYLE('',#435,POSITIVE_LENGTH_MEASURE(1.0E-006),#436);
#272=VERTEX_POINT('',#437);
#273=CIRCLE('',#438,35.4);
#274=CURVE_STYLE('',#439,POSITIVE_LENGTH_MEASURE(1.0E-006),#440);
#275=VERTEX_POINT('',#441);
#276=CIRCLE('',#442,37.0);
#277=SURFACE_STYLE_USAGE(.BOTH.,#443);
#278=CLOSED_SHELL('',(#65,#67,#69,#71,#73,#75,#77,#79,#81,#83,#85,#87,#89));
#279=PRODUCT_CONTEXT('',#51,'mechanical');
#280=PRODUCT_DEFINITION_FORMATION_WITH_SPECIFIED_SOURCE(' ','NONE',#146,.NOT_KNOWN.);
#281=CARTESIAN_POINT('',(0.0,0.0,0.0));
#282=DIRECTION('',(0.0,0.0,1.0));
#283=DIRECTION('',(1.0,0.0,0.0));
#284= (NAMED_UNIT(#154)LENGTH_UNIT()SI_UNIT(.MILLI.,.METRE.));
#285=SURFACE_SIDE_STYLE('',(#445));
#286=EDGE_LOOP('',(#446,#447,#448,#449,#450,#451,#452,#453));
#287=AXIS2_PLACEMENT_3D('',#454,#455,#456);
#288=SURFACE_SIDE_STYLE('',(#457));
#289=EDGE_LOOP('',(#458,#459,#460,#461));
#290=AXIS2_PLACEMENT_3D('',#462,#463,#464);
#291=SURFACE_SIDE_STYLE('',(#465));
#292=EDGE_LOOP('',(#466,#467,#468,#469));
#293=AXIS2_PLACEMENT_3D('',#470,#471,#472);
#294=SURFACE_SIDE_STYLE('',(#473));
#295=EDGE_LOOP('',(#474,#475,#476,#477));
#296=AXIS2_PLACEMENT_3D('',#478,#479,#480);
#297=SURFACE_SIDE_STYLE('',(#481));
#298=EDGE_LOOP('',(#482,#483,#484,#485));
#299=AXIS2_PLACEMENT_3D('',#486,#487,#488);
#300=SURFACE_SIDE_STYLE('',(#489));
#301=EDGE_LOOP('',(#490,#491,#492,#493));
#302=AXIS2_PLACEMENT_3D('',#494,#495,#496);
#303=SURFACE_SIDE_STYLE('',(#497));
#304=EDGE_LOOP('',(#498,#499,#500,#501));
#305=AXIS2_PLACEMENT_3D('',#502,#503,#504);
#306=SURFACE_SIDE_STYLE('',(#505));
#307=EDGE_LOOP('',(#506,#507,#508,#509));
#308=AXIS2_PLACEMENT_3D('',#510,#511,#512);
#309=SURFACE_SIDE_STYLE('',(#513));
#310=EDGE_LOOP('',(#514,#515,#516,#517));
#311=AXIS2_PLACEMENT_3D('',#518,#519,#520);
#312=SURFACE_SIDE_STYLE('',(#521));
#313=EDGE_LOOP('',(#522));
#314=AXIS2_PLACEMENT_3D('',#523,#524,#525);
#315=SURFACE_SIDE_STYLE('',(#526));
#316=EDGE_LOOP('',(#527));
#317=EDGE_LOOP('',(#528));
#318=AXIS2_PLACEMENT_3D('',#529,#530,#531);
#319=SURFACE_SIDE_STYLE('',(#532));
#320=EDGE_LOOP('',(#533));
#321=EDGE_LOOP('',(#534));
#322=AXIS2_PLACEMENT_3D('',#535,#536,#537);
#323=SURFACE_SIDE_STYLE('',(#538));
#324=EDGE_LOOP('',(#539,#540,#541,#542,#543,#544,#545,#546));
#325=EDGE_LOOP('',(#547));
#326=AXIS2_PLACEMENT_3D('',#548,#549,#550);
#327=DRAUGHTING_PRE_DEFINED_CURVE_FONT('continuous');
#328=COLOUR_RGB('',0.941176474094391,0.627451002597809,0.431372553110123);
#329=CARTESIAN_POINT('',(30.0,-50.0,-118.3));
#330=CARTESIAN_POINT('',(50.0,-30.0,-118.3));
#331=AXIS2_PLACEMENT_3D('',#551,#552,#553);
#332=DRAUGHTING_PRE_DEFINED_CURVE_FONT('continuous');
#333=COLOUR_RGB('',0.941176474094391,0.627451002597809,0.431372553110123);
#334=CARTESIAN_POINT('',(-30.0,-50.0,-118.3));
#335=CARTESIAN_POINT('',(-7.105427357601E-015,-50.0,-118.3));
#336=VECTOR('',#554,1.0);
#337=DRAUGHTING_PRE_DEFINED_CURVE_FONT('continuous');
#338=COLOUR_RGB('',0.941176474094391,0.627451002597809,0.431372553110123);
#339=CARTESIAN_POINT('',(-50.0,-30.0,-118.3));
#340=AXIS2_PLACEMENT_3D('',#555,#556,#557);
#341=DRAUGHTING_PRE_DEFINED_CURVE_FONT('continuous');
#342=COLOUR_RGB('',0.941176474094391,0.627451002597809,0.431372553110123);
#343=CARTESIAN_POINT('',(-50.0,30.0,-118.3));
#344=CARTESIAN_POINT('',(-50.0,-9.60259032556249E-015,-118.3));
#345=VECTOR('',#558,1.0);
#346=DRAUGHTING_PRE_DEFINED_CURVE_FONT('continuous');
#347=COLOUR_RGB('',0.941176474094391,0.627451002597809,0.431372553110123);
#348=CARTESIAN_POINT('',(-30.0,50.0,-118.3));
#349=AXIS2_PLACEMENT_3D('',#559,#560,#561);
#350=DRAUGHTING_PRE_DEFINED_CURVE_FONT('continuous');
#351=COLOUR_RGB('',0.941176474094391,0.627451002597809,0.431372553110123);
#352=CARTESIAN_POINT('',(30.0,50.0,-118.3));
#353=CARTESIAN_POINT('',(-7.105427357601E-015,50.0,-118.3));
#354=VECTOR('',#562,1.0);
#355=DRAUGHTING_PRE_DEFINED_CURVE_FONT('continuous');
#356=COLOUR_RGB('',0.941176474094391,0.627451002597809,0.431372553110123);
#357=CARTESIAN_POINT('',(50.0,30.0,-118.3));
#358=AXIS2_PLACEMENT_3D('',#563,#564,#565);
#359=DRAUGHTING_PRE_DEFINED_CURVE_FONT('continuous');
#360=COLOUR_RGB('',0.941176474094391,0.627451002597809,0.431372553110123);
#361=CARTESIAN_POINT('',(50.0,-9.60259032556249E-015,-118.3));
#362=VECTOR('',#566,1.0);
#363=DRAUGHTING_PRE_DEFINED_CURVE_FONT('continuous');
#364=COLOUR_RGB('',0.941176474094391,0.627451002597809,0.431372553110123);
#365=CARTESIAN_POINT('',(-50.0,-30.0,3.67394039744206E-015));
#366=CARTESIAN_POINT('',(-50.0,-30.0,3.67394039744206E-015));
#367=VECTOR('',#567,1.0);
#368=DRAUGHTING_PRE_DEFINED_CURVE_FONT('continuous');
#369=COLOUR_RGB('',0.941176474094391,0.627451002597809,0.431372553110123);
#370=CARTESIAN_POINT('',(-50.0,30.0,-3.67394039744206E-015));
#371=CARTESIAN_POINT('',(-50.0,0.0,0.0));
#372=VECTOR('',#568,1.0);
#373=DRAUGHTING_PRE_DEFINED_CURVE_FONT('continuous');
#374=COLOUR_RGB('',0.941176474094391,0.627451002597809,0.431372553110123);
#375=CARTESIAN_POINT('',(-50.0,30.0,-3.67394039744206E-015));
#376=VECTOR('',#569,1.0);
#377=DRAUGHTING_PRE_DEFINED_CURVE_FONT('continuous');
#378=COLOUR_RGB('',0.941176474094391,0.627451002597809,0.431372553110123);
#379=CARTESIAN_POINT('',(-30.0,-50.0,6.12323399573676E-015));
#380=CARTESIAN_POINT('',(-30.0,-50.0,6.12323399573676E-015));
#381=VECTOR('',#570,1.0);
#382=DRAUGHTING_PRE_DEFINED_CURVE_FONT('continuous');
#383=COLOUR_RGB('',0.941176474094391,0.627451002597809,0.431372553110123);
#384=AXIS2_PLACEMENT_3D('',#571,#572,#573);
#385=DRAUGHTING_PRE_DEFINED_CURVE_FONT('continuous');
#386=COLOUR_RGB('',0.941176474094391,0.627451002597809,0.431372553110123);
#387=CARTESIAN_POINT('',(30.0,-50.0,6.12323399573676E-015));
#388=CARTESIAN_POINT('',(30.0,-50.0,6.12323399573676E-015));
#389=VECTOR('',#574,1.0);
#390=DRAUGHTING_PRE_DEFINED_CURVE_FONT('continuous');
#391=COLOUR_RGB('',0.941176474094391,0.627451002597809,0.431372553110123);
#392=CARTESIAN_POINT('',(26.0,-50.0,6.12323399573676E-015));
#393=VECTOR('',#575,1.0);
#394=DRAUGHTING_PRE_DEFINED_CURVE_FONT('continuous');
#395=COLOUR_RGB('',0.941176474094391,0.627451002597809,0.431372553110123);
#396=CARTESIAN_POINT('',(50.0,-30.0,3.67394039744206E-015));
#397=CARTESIAN_POINT('',(50.0,-30.0,3.67394039744206E-015));
#398=VECTOR('',#576,1.0);
#399=DRAUGHTING_PRE_DEFINED_CURVE_FONT('continuous');
#400=COLOUR_RGB('',0.941176474094391,0.627451002597809,0.431372553110123);
#401=AXIS2_PLACEMENT_3D('',#577,#578,#579);
#402=DRAUGHTING_PRE_DEFINED_CURVE_FONT('continuous');
#403=COLOUR_RGB('',0.941176474094391,0.627451002597809,0.431372553110123);
#404=CARTESIAN_POINT('',(-30.0,50.0,-6.12323399573676E-015));
#405=AXIS2_PLACEMENT_3D('',#580,#581,#582);
#406=DRAUGHTING_PRE_DEFINED_CURVE_FONT('continuous');
#407=COLOUR_RGB('',0.941176474094391,0.627451002597809,0.431372553110123);
#408=CARTESIAN_POINT('',(-30.0,50.0,-6.12323399573676E-015));
#409=VECTOR('',#583,1.0);
#410=DRAUGHTING_PRE_DEFINED_CURVE_FONT('continuous');
#411=COLOUR_RGB('',0.941176474094391,0.627451002597809,0.431372553110123);
#412=CARTESIAN_POINT('',(30.0,50.0,-6.12323399573676E-015));
#413=CARTESIAN_POINT('',(26.0,50.0,-6.12323399573676E-015));
#414=VECTOR('',#584,1.0);
#415=DRAUGHTING_PRE_DEFINED_CURVE_FONT('continuous');
#416=COLOUR_RGB('',0.941176474094391,0.627451002597809,0.431372553110123);
#417=CARTESIAN_POINT('',(30.0,50.0,-6.12323399573676E-015));
#418=VECTOR('',#585,1.0);
#419=DRAUGHTING_PRE_DEFINED_CURVE_FONT('continuous');
#420=COLOUR_RGB('',0.941176474094391,0.627451002597809,0.431372553110123);
#421=CARTESIAN_POINT('',(50.0,30.0,-3.67394039744206E-015));
#422=AXIS2_PLACEMENT_3D('',#586,#587,#588);
#423=DRAUGHTING_PRE_DEFINED_CURVE_FONT('continuous');
#424=COLOUR_RGB('',0.941176474094391,0.627451002597809,0.431372553110123);
#425=CARTESIAN_POINT('',(50.0,30.0,-3.67394039744206E-015));
#426=VECTOR('',#589,1.0);
#427=DRAUGHTING_PRE_DEFINED_CURVE_FONT('continuous');
#428=COLOUR_RGB('',0.941176474094391,0.627451002597809,0.431372553110123);
#429=CARTESIAN_POINT('',(50.0,0.0,0.0));
#430=VECTOR('',#590,1.0);
#431=DRAUGHTING_PRE_DEFINED_CURVE_FONT('continuous');
#432=COLOUR_RGB('',0.941176474094391,0.627451002597809,0.431372553110123);
#433=CARTESIAN_POINT('',(32.4005477489833,-1.0612789161411E-014,-86.66));
#434=AXIS2_PLACEMENT_3D('',#591,#592,#593);
#435=DRAUGHTING_PRE_DEFINED_CURVE_FONT('continuous');
#436=COLOUR_RGB('',0.941176474094391,0.627451002597809,0.431372553110123);
#437=CARTESIAN_POINT('',(35.4,-1.02524154502953E-014,-83.7173253335854));
#438=AXIS2_PLACEMENT_3D('',#594,#595,#596);
#439=DRAUGHTING_PRE_DEFINED_CURVE_FONT('continuous');
#440=COLOUR_RGB('',0.941176474094391,0.627451002597809,0.431372553110123);
#441=CARTESIAN_POINT('',(37.0,0.0,0.0));
#442=AXIS2_PLACEMENT_3D('',#597,#598,#599);
#443=SURFACE_SIDE_STYLE('',(#600));
#445=SURFACE_STYLE_FILL_AREA(#601);
#446=ORIENTED_EDGE('',*,*,#91,.F.);
#447=ORIENTED_EDGE('',*,*,#93,.F.);
#448=ORIENTED_EDGE('',*,*,#95,.F.);
#449=ORIENTED_EDGE('',*,*,#97,.F.);
#450=ORIENTED_EDGE('',*,*,#99,.F.);
#451=ORIENTED_EDGE('',*,*,#101,.F.);
#452=ORIENTED_EDGE('',*,*,#103,.F.);
#453=ORIENTED_EDGE('',*,*,#105,.F.);
#454=CARTESIAN_POINT('',(-1.4210854715202E-014,-4.71760901721181E-015,-118.3));
#455=DIRECTION('',(-4.45287181358172E-031,-1.22464679914735E-016,-1.0));
#456=DIRECTION('',(1.0,-5.45319521351632E-047,-4.45287181358172E-031));
#457=SURFACE_STYLE_FILL_AREA(#602);
#458=ORIENTED_EDGE('',*,*,#97,.T.);
#459=ORIENTED_EDGE('',*,*,#107,.F.);
#460=ORIENTED_EDGE('',*,*,#109,.F.);
#461=ORIENTED_EDGE('',*,*,#111,.T.);
#462=CARTESIAN_POINT('',(-50.0,0.0,0.0));
#463=DIRECTION('',(-1.0,0.0,-0.0));
#464=DIRECTION('',(0.0,1.0,-1.22464679914735E-016));
#465=SURFACE_STYLE_FILL_AREA(#603);
#466=ORIENTED_EDGE('',*,*,#95,.T.);
#467=ORIENTED_EDGE('',*,*,#113,.F.);
#468=ORIENTED_EDGE('',*,*,#115,.F.);
#469=ORIENTED_EDGE('',*,*,#107,.T.);
#470=CARTESIAN_POINT('',(-30.0,-30.0,3.67394039744206E-015));
#471=DIRECTION('',(0.0,-1.22464679914735E-016,-1.0));
#472=DIRECTION('',(0.0,-1.0,1.22464679914735E-016));
#473=SURFACE_STYLE_FILL_AREA(#604);
#474=ORIENTED_EDGE('',*,*,#93,.T.);
#475=ORIENTED_EDGE('',*,*,#117,.F.);
#476=ORIENTED_EDGE('',*,*,#119,.F.);
#477=ORIENTED_EDGE('',*,*,#113,.T.);
#478=CARTESIAN_POINT('',(0.0,-50.0,6.12323399573676E-015));
#479=DIRECTION('',(0.0,-1.0,1.22464679914735E-016));
#480=DIRECTION('',(-1.0,0.0,0.0));
#481=SURFACE_STYLE_FILL_AREA(#605);
#482=ORIENTED_EDGE('',*,*,#91,.T.);
#483=ORIENTED_EDGE('',*,*,#121,.F.);
#484=ORIENTED_EDGE('',*,*,#123,.F.);
#485=ORIENTED_EDGE('',*,*,#117,.T.);
#486=CARTESIAN_POINT('',(30.0,-30.0,3.67394039744206E-015));
#487=DIRECTION('',(0.0,-1.22464679914735E-016,-1.0));
#488=DIRECTION('',(1.0,3.5527136788005E-016,-4.35081943503005E-032));
#489=SURFACE_STYLE_FILL_AREA(#606);
#490=ORIENTED_EDGE('',*,*,#99,.T.);
#491=ORIENTED_EDGE('',*,*,#111,.F.);
#492=ORIENTED_EDGE('',*,*,#125,.F.);
#493=ORIENTED_EDGE('',*,*,#127,.T.);
#494=CARTESIAN_POINT('',(-30.0,30.0,-3.67394039744206E-015));
#495=DIRECTION('',(0.0,-1.22464679914735E-016,-1.0));
#496=DIRECTION('',(2.1316282072803E-015,1.0,-1.22464679914735E-016));
#497=SURFACE_STYLE_FILL_AREA(#607);
#498=ORIENTED_EDGE('',*,*,#101,.T.);
#499=ORIENTED_EDGE('',*,*,#127,.F.);
#500=ORIENTED_EDGE('',*,*,#129,.F.);
#501=ORIENTED_EDGE('',*,*,#131,.T.);
#502=CARTESIAN_POINT('',(0.0,50.0,-6.12323399573676E-015));
#503=DIRECTION('',(0.0,1.0,-1.22464679914735E-016));
#504=DIRECTION('',(1.0,0.0,0.0));
#505=SURFACE_STYLE_FILL_AREA(#608);
#506=ORIENTED_EDGE('',*,*,#103,.T.);
#507=ORIENTED_EDGE('',*,*,#131,.F.);
#508=ORIENTED_EDGE('',*,*,#133,.F.);
#509=ORIENTED_EDGE('',*,*,#135,.T.);
#510=CARTESIAN_POINT('',(30.0,30.0,-3.67394039744206E-015));
#511=DIRECTION('',(-1.40129846432482E-047,-1.22464679914735E-016,-1.0));
#512=DIRECTION('',(-8.88178419700125E-016,1.0,-1.22464679914735E-016));
#513=SURFACE_STYLE_FILL_AREA(#609);
#514=ORIENTED_EDGE('',*,*,#105,.T.);
#515=ORIENTED_EDGE('',*,*,#135,.F.);
#516=ORIENTED_EDGE('',*,*,#137,.F.);
#517=ORIENTED_EDGE('',*,*,#121,.T.);
#518=CARTESIAN_POINT('',(50.0,0.0,0.0));
#519=DIRECTION('',(1.0,0.0,0.0));
#520=DIRECTION('',(0.0,-1.0,1.22464679914735E-016));
#521=SURFACE_STYLE_FILL_AREA(#610);
#522=ORIENTED_EDGE('',*,*,#139,.T.);
#523=CARTESIAN_POINT('',(32.4005477489833,-1.0612789161411E-014,-86.66));
#524=DIRECTION('',(0.0,1.22464679914735E-016,1.0));
#525=DIRECTION('',(-1.0,-0.0,0.0));
#526=SURFACE_STYLE_FILL_AREA(#611);
#527=ORIENTED_EDGE('',*,*,#139,.F.);
#528=ORIENTED_EDGE('',*,*,#141,.T.);
#529=CARTESIAN_POINT('',(0.0,-1.02453951216668E-014,-83.66));
#530=DIRECTION('',(0.0,-1.22464679914735E-016,-1.0));
#531=DIRECTION('',(1.0,0.0,0.0));
#532=SURFACE_STYLE_FILL_AREA(#612);
#533=ORIENTED_EDGE('',*,*,#141,.F.);
#534=ORIENTED_EDGE('',*,*,#143,.F.);
#535=CARTESIAN_POINT('',(0.0,0.0,0.0));
#536=DIRECTION('',(0.0,1.22464679914735E-016,1.0));
#537=DIRECTION('',(-1.0,0.0,0.0));
#538=SURFACE_STYLE_FILL_AREA(#613);
#539=ORIENTED_EDGE('',*,*,#125,.T.);
#540=ORIENTED_EDGE('',*,*,#109,.T.);
#541=ORIENTED_EDGE('',*,*,#115,.T.);
#542=ORIENTED_EDGE('',*,*,#119,.T.);
#543=ORIENTED_EDGE('',*,*,#123,.T.);
#544=ORIENTED_EDGE('',*,*,#137,.T.);
#545=ORIENTED_EDGE('',*,*,#133,.T.);
#546=ORIENTED_EDGE('',*,*,#129,.T.);
#547=ORIENTED_EDGE('',*,*,#143,.T.);
#548=CARTESIAN_POINT('',(52.0,0.0,0.0));
#549=DIRECTION('',(0.0,-1.22464679914735E-016,-1.0));
#550=DIRECTION('',(1.0,0.0,0.0));
#551=CARTESIAN_POINT('',(30.0,-30.0,-118.3));
#552=DIRECTION('',(4.45287181358172E-031,1.22464679914735E-016,1.0));
#553=DIRECTION('',(1.0,3.5527136788005E-016,-4.88795375708472E-031));
#554=DIRECTION('',(1.0,-5.45319521351632E-047,-4.45287181358172E-031));
#555=CARTESIAN_POINT('',(-30.0,-30.0,-118.3));
#556=DIRECTION('',(4.45287181358172E-031,1.22464679914735E-016,1.0));
#557=DIRECTION('',(-1.7563482448476E-062,-1.0,1.22464679914735E-016));
#558=DIRECTION('',(0.0,-1.0,1.22464679914735E-016));
#559=CARTESIAN_POINT('',(-30.0,30.0,-118.3));
#560=DIRECTION('',(4.45287181358171E-031,1.22464679914735E-016,1.0));
#561=DIRECTION('',(2.1316282072803E-015,1.0,-1.22464679914735E-016));
#562=DIRECTION('',(-1.0,5.45319521351632E-047,4.45287181358172E-031));
#563=CARTESIAN_POINT('',(30.0,30.0,-118.3));
#564=DIRECTION('',(4.45287181358172E-031,1.22464679914735E-016,1.0));
#565=DIRECTION('',(-8.88178419700125E-016,1.0,-1.22464679914735E-016));
#566=DIRECTION('',(0.0,1.0,-1.22464679914735E-016));
#567=DIRECTION('',(0.0,-1.22464679914735E-016,-1.0));
#568=DIRECTION('',(0.0,-1.0,1.22464679914735E-016));
#569=DIRECTION('',(0.0,-1.22464679914735E-016,-1.0));
#570=DIRECTION('',(0.0,-1.22464679914735E-016,-1.0));
#571=CARTESIAN_POINT('',(-30.0,-30.0,3.67394039744206E-015));
#572=DIRECTION('',(-0.0,1.22464679914735E-016,1.0));
#573=DIRECTION('',(0.0,-1.0,1.22464679914735E-016));
#574=DIRECTION('',(0.0,-1.22464679914735E-016,-1.0));
#575=DIRECTION('',(1.0,0.0,0.0));
#576=DIRECTION('',(0.0,-1.22464679914735E-016,-1.0));
#577=CARTESIAN_POINT('',(30.0,-30.0,3.67394039744206E-015));
#578=DIRECTION('',(0.0,1.22464679914735E-016,1.0));
#579=DIRECTION('',(1.0,3.5527136788005E-016,-4.35081943503005E-032));
#580=CARTESIAN_POINT('',(-30.0,30.0,-3.67394039744206E-015));
#581=DIRECTION('',(0.0,1.22464679914735E-016,1.0));
#582=DIRECTION('',(2.1316282072803E-015,1.0,-1.22464679914735E-016));
#583=DIRECTION('',(0.0,-1.22464679914735E-016,-1.0));
#584=DIRECTION('',(-1.0,-0.0,0.0));
#585=DIRECTION('',(0.0,-1.22464679914735E-016,-1.0));
#586=CARTESIAN_POINT('',(30.0,30.0,-3.67394039744206E-015));
#587=DIRECTION('',(1.40129846432482E-047,1.22464679914735E-016,1.0));
#588=DIRECTION('',(-8.88178419700125E-016,1.0,-1.22464679914735E-016));
#589=DIRECTION('',(0.0,-1.22464679914735E-016,-1.0));
#590=DIRECTION('',(0.0,1.0,-1.22464679914735E-016));
#591=CARTESIAN_POINT('',(0.0,-1.0612789161411E-014,-86.66));
#592=DIRECTION('',(0.0,-1.22464679914735E-016,-1.0));
#593=DIRECTION('',(1.0,0.0,0.0));
#594=CARTESIAN_POINT('',(0.0,-1.02524154502953E-014,-83.7173253335854));
#595=DIRECTION('',(0.0,-1.22464679914735E-016,-1.0));
#596=DIRECTION('',(1.0,0.0,0.0));
#597=CARTESIAN_POINT('',(0.0,0.0,0.0));
#598=DIRECTION('',(0.0,-1.22464679914735E-016,-1.0));
#599=DIRECTION('',(1.0,0.0,0.0));
#600=SURFACE_STYLE_FILL_AREA(#614);
#601=FILL_AREA_STYLE('',(#615));
#602=FILL_AREA_STYLE('',(#616));
#603=FILL_AREA_STYLE('',(#617));
#604=FILL_AREA_STYLE('',(#618));
#605=FILL_AREA_STYLE('',(#619));
#606=FILL_AREA_STYLE('',(#620));
#607=FILL_AREA_STYLE('',(#621));
#608=FILL_AREA_STYLE('',(#622));
#609=FILL_AREA_STYLE('',(#623));
#610=FILL_AREA_STYLE('',(#624));
#611=FILL_AREA_STYLE('',(#625));
#612=FILL_AREA_STYLE('',(#626));
#613=FILL_AREA_STYLE('',(#627));
#614=FILL_AREA_STYLE('',(#628));
#615=FILL_AREA_STYLE_COLOUR('',#629);
#616=FILL_AREA_STYLE_COLOUR('',#630);
#617=FILL_AREA_STYLE_COLOUR('',#631);
#618=FILL_AREA_STYLE_COLOUR('',#632);
#619=FILL_AREA_STYLE_COLOUR('',#633);
#620=FILL_AREA_STYLE_COLOUR('',#634);
#621=FILL_AREA_STYLE_COLOUR('',#635);
#622=FILL_AREA_STYLE_COLOUR('',#636);
#623=FILL_AREA_STYLE_COLOUR('',#637);
#624=FILL_AREA_STYLE_COLOUR('',#638);
#625=FILL_AREA_STYLE_COLOUR('',#639);
#626=FILL_AREA_STYLE_COLOUR('',#640);
#627=FILL_AREA_STYLE_COLOUR('',#641);
#628=FILL_AREA_STYLE_COLOUR('',#642);
#629=COLOUR_RGB('',0.941176474094391,0.627451002597809,0.431372553110123);
#630=COLOUR_RGB('',0.941176474094391,0.627451002597809,0.431372553110123);
#631=COLOUR_RGB('',0.941176474094391,0.627451002597809,0.431372553110123);
#632=COLOUR_RGB('',0.941176474094391,0.627451002597809,0.431372553110123);
#633=COLOUR_RGB('',0.941176474094391,0.627451002597809,0.431372553110123);
#634=COLOUR_RGB('',0.941176474094391,0.627451002597809,0.431372553110123);
#635=COLOUR_RGB('',0.941176474094391,0.627451002597809,0.431372553110123);
#636=COLOUR_RGB('',0.941176474094391,0.627451002597809,0.431372553110123);
#637=COLOUR_RGB('',0.941176474094391,0.627451002597809,0.431372553110123);
#638=COLOUR_RGB('',0.592156887054443,0.666666686534882,0.682352960109711);
#639=COLOUR_RGB('',0.592156887054443,0.666666686534882,0.682352960109711);
#640=COLOUR_RGB('',0.592156887054443,0.666666686534882,0.682352960109711);
#641=COLOUR_RGB('',0.592156887054443,0.666666686534882,0.682352960109711);
#642=COLOUR_RGB('',0.941176474094391,0.627451002597809,0.431372553110123);
ENDSEC;
END-ISO-10303-21;
