ISO-10303-21;
HEADER;
FILE_DESCRIPTION(('STEP AP214'),'1');
FILE_NAME('2.stp','2026-06-06T04:27:26',('Boonlert'),('None'),'Spatial InterOp 3D','Cimatron E 12.0',' ');
FILE_SCHEMA(('automotive_design'));
ENDSEC;
DATA;
#1=MECHANICAL_DESIGN_GEOMETRIC_PRESENTATION_REPRESENTATION(' ',(#10,#11,#12,#13,#14,#15,#16,#17,#18,#19,#20,#21,#22,#23,#24,#25,#26,#27,#28,#29,#30,#31,#32,#33,#34,#35,#36,#37,#38,#39,#40,#41,#42,#43,#44,#45,#46,#47,#48,#49,#50,#51,#52,#53,#54,#55,#56,#57,#58,#59,#60,#61,#62,#63,#64,#65,#66,#67,#68,#69,#70,#71,#72,#73,#74,#75,#76,#77,#78,#79,#80,#81,#82,#83,#84,#85,#86,#87,#88,#89,#90,#91,#92,#93,#94,#95,#96,#97,#98,#99,#100,#101,#102,#103,#104,#105),#6);
#2=PRODUCT_DEFINITION_CONTEXT('',#106,'design');
#3=APPLICATION_PROTOCOL_DEFINITION('INTERNATIONAL STANDARD','automotive_design',1994,#106);
#4=PRODUCT_CATEGORY_RELATIONSHIP('NONE','NONE',#107,#108);
#5=SHAPE_DEFINITION_REPRESENTATION(#109,#110);
#6= (GEOMETRIC_REPRESENTATION_CONTEXT(3)GLOBAL_UNCERTAINTY_ASSIGNED_CONTEXT((#113))GLOBAL_UNIT_ASSIGNED_CONTEXT((#115,#116,#117))REPRESENTATION_CONTEXT('NONE','WORKSPACE'));
#10=STYLED_ITEM('',(#119),#120);
#11=STYLED_ITEM('',(#121),#122);
#12=STYLED_ITEM('',(#123),#124);
#13=STYLED_ITEM('',(#125),#126);
#14=STYLED_ITEM('',(#127),#128);
#15=STYLED_ITEM('',(#129),#130);
#16=STYLED_ITEM('',(#131),#132);
#17=STYLED_ITEM('',(#133),#134);
#18=STYLED_ITEM('',(#135),#136);
#19=STYLED_ITEM('',(#137),#138);
#20=STYLED_ITEM('',(#139),#140);
#21=STYLED_ITEM('',(#141),#142);
#22=STYLED_ITEM('',(#143),#144);
#23=STYLED_ITEM('',(#145),#146);
#24=STYLED_ITEM('',(#147),#148);
#25=STYLED_ITEM('',(#149),#150);
#26=STYLED_ITEM('',(#151),#152);
#27=STYLED_ITEM('',(#153),#154);
#28=STYLED_ITEM('',(#155),#156);
#29=STYLED_ITEM('',(#157),#158);
#30=STYLED_ITEM('',(#159),#160);
#31=STYLED_ITEM('',(#161),#162);
#32=STYLED_ITEM('',(#163),#164);
#33=STYLED_ITEM('',(#165),#166);
#34=STYLED_ITEM('',(#167),#168);
#35=STYLED_ITEM('',(#169),#170);
#36=STYLED_ITEM('',(#171),#172);
#37=STYLED_ITEM('',(#173),#174);
#38=STYLED_ITEM('',(#175),#176);
#39=STYLED_ITEM('',(#177),#178);
#40=STYLED_ITEM('',(#179),#180);
#41=STYLED_ITEM('',(#181),#182);
#42=STYLED_ITEM('',(#183),#184);
#43=STYLED_ITEM('',(#185),#186);
#44=STYLED_ITEM('',(#187),#188);
#45=STYLED_ITEM('',(#189),#190);
#46=STYLED_ITEM('',(#191),#192);
#47=STYLED_ITEM('',(#193),#194);
#48=STYLED_ITEM('',(#195),#196);
#49=STYLED_ITEM('',(#197),#198);
#50=STYLED_ITEM('',(#199),#200);
#51=STYLED_ITEM('',(#201),#202);
#52=STYLED_ITEM('',(#203),#204);
#53=STYLED_ITEM('',(#205),#206);
#54=STYLED_ITEM('',(#207),#208);
#55=STYLED_ITEM('',(#209),#210);
#56=STYLED_ITEM('',(#211),#212);
#57=STYLED_ITEM('',(#213),#214);
#58=STYLED_ITEM('',(#215),#216);
#59=STYLED_ITEM('',(#217),#218);
#60=STYLED_ITEM('',(#219),#220);
#61=STYLED_ITEM('',(#221),#222);
#62=STYLED_ITEM('',(#223),#224);
#63=STYLED_ITEM('',(#225),#226);
#64=STYLED_ITEM('',(#227),#228);
#65=STYLED_ITEM('',(#229),#230);
#66=STYLED_ITEM('',(#231),#232);
#67=STYLED_ITEM('',(#233),#234);
#68=STYLED_ITEM('',(#235),#236);
#69=STYLED_ITEM('',(#237),#238);
#70=STYLED_ITEM('',(#239),#240);
#71=STYLED_ITEM('',(#241),#242);
#72=STYLED_ITEM('',(#243),#244);
#73=STYLED_ITEM('',(#245),#246);
#74=STYLED_ITEM('',(#247),#248);
#75=STYLED_ITEM('',(#249),#250);
#76=STYLED_ITEM('',(#251),#252);
#77=STYLED_ITEM('',(#253),#254);
#78=STYLED_ITEM('',(#255),#256);
#79=STYLED_ITEM('',(#257),#258);
#80=STYLED_ITEM('',(#259),#260);
#81=STYLED_ITEM('',(#261),#262);
#82=STYLED_ITEM('',(#263),#264);
#83=STYLED_ITEM('',(#265),#266);
#84=STYLED_ITEM('',(#267),#268);
#85=STYLED_ITEM('',(#269),#270);
#86=STYLED_ITEM('',(#271),#272);
#87=STYLED_ITEM('',(#273),#274);
#88=STYLED_ITEM('',(#275),#276);
#89=STYLED_ITEM('',(#277),#278);
#90=STYLED_ITEM('',(#279),#280);
#91=STYLED_ITEM('',(#281),#282);
#92=STYLED_ITEM('',(#283),#284);
#93=STYLED_ITEM('',(#285),#286);
#94=STYLED_ITEM('',(#287),#288);
#95=STYLED_ITEM('',(#289),#290);
#96=STYLED_ITEM('',(#291),#292);
#97=STYLED_ITEM('',(#293),#294);
#98=STYLED_ITEM('',(#295),#296);
#99=STYLED_ITEM('',(#297),#298);
#100=STYLED_ITEM('',(#299),#300);
#101=STYLED_ITEM('',(#301),#302);
#102=STYLED_ITEM('',(#303),#304);
#103=STYLED_ITEM('',(#305),#306);
#104=STYLED_ITEM('',(#307),#308);
#105=STYLED_ITEM('',(#309),#310);
#106=APPLICATION_CONTEXT(' ');
#107=PRODUCT_CATEGORY('part','NONE');
#108=PRODUCT_RELATED_PRODUCT_CATEGORY('detail',' ',(#311));
#109=PRODUCT_DEFINITION_SHAPE('NONE','NONE',#312);
#110=ADVANCED_BREP_SHAPE_REPRESENTATION('1',(#310,#313),#6);
#113=UNCERTAINTY_MEASURE_WITH_UNIT(LENGTH_MEASURE(1.0E-006),#115,'','');
#115= (CONVERSION_BASED_UNIT('MILLIMETRE',#316)LENGTH_UNIT()NAMED_UNIT(#319));
#116= (NAMED_UNIT(#321)PLANE_ANGLE_UNIT()SI_UNIT($,.RADIAN.));
#117= (NAMED_UNIT(#321)SOLID_ANGLE_UNIT()SI_UNIT($,.STERADIAN.));
#119=PRESENTATION_STYLE_ASSIGNMENT((#327));
#120=ADVANCED_FACE('',(#328,#329,#330,#331,#332,#333,#334,#335,#336,#337,#338,#339,#340,#341,#342,#343),#344,.F.);
#121=PRESENTATION_STYLE_ASSIGNMENT((#345));
#122=ADVANCED_FACE('',(#346,#347),#348,.F.);
#123=PRESENTATION_STYLE_ASSIGNMENT((#349));
#124=ADVANCED_FACE('',(#350,#351),#352,.T.);
#125=PRESENTATION_STYLE_ASSIGNMENT((#353));
#126=ADVANCED_FACE('',(#354,#355),#356,.F.);
#127=PRESENTATION_STYLE_ASSIGNMENT((#357));
#128=ADVANCED_FACE('',(#358,#359,#360,#361,#362,#363,#364,#365,#366,#367,#368,#369,#370),#371,.T.);
#129=PRESENTATION_STYLE_ASSIGNMENT((#372));
#130=ADVANCED_FACE('',(#373,#374),#375,.F.);
#131=PRESENTATION_STYLE_ASSIGNMENT((#376));
#132=ADVANCED_FACE('',(#377),#378,.T.);
#133=PRESENTATION_STYLE_ASSIGNMENT((#379));
#134=ADVANCED_FACE('',(#380),#381,.T.);
#135=PRESENTATION_STYLE_ASSIGNMENT((#382));
#136=ADVANCED_FACE('',(#383),#384,.T.);
#137=PRESENTATION_STYLE_ASSIGNMENT((#385));
#138=ADVANCED_FACE('',(#386),#387,.T.);
#139=PRESENTATION_STYLE_ASSIGNMENT((#388));
#140=ADVANCED_FACE('',(#389,#390),#391,.F.);
#141=PRESENTATION_STYLE_ASSIGNMENT((#392));
#142=ADVANCED_FACE('',(#393,#394),#395,.F.);
#143=PRESENTATION_STYLE_ASSIGNMENT((#396));
#144=ADVANCED_FACE('',(#397,#398),#399,.F.);
#145=PRESENTATION_STYLE_ASSIGNMENT((#400));
#146=ADVANCED_FACE('',(#401,#402),#403,.F.);
#147=PRESENTATION_STYLE_ASSIGNMENT((#404));
#148=ADVANCED_FACE('',(#405,#406),#407,.F.);
#149=PRESENTATION_STYLE_ASSIGNMENT((#408));
#150=ADVANCED_FACE('',(#409,#410),#411,.F.);
#151=PRESENTATION_STYLE_ASSIGNMENT((#412));
#152=ADVANCED_FACE('',(#413,#414),#415,.F.);
#153=PRESENTATION_STYLE_ASSIGNMENT((#416));
#154=ADVANCED_FACE('',(#417,#418),#419,.F.);
#155=PRESENTATION_STYLE_ASSIGNMENT((#420));
#156=ADVANCED_FACE('',(#421,#422),#423,.F.);
#157=PRESENTATION_STYLE_ASSIGNMENT((#424));
#158=ADVANCED_FACE('',(#425,#426),#427,.F.);
#159=PRESENTATION_STYLE_ASSIGNMENT((#428));
#160=ADVANCED_FACE('',(#429,#430),#431,.F.);
#161=PRESENTATION_STYLE_ASSIGNMENT((#432));
#162=ADVANCED_FACE('',(#433),#434,.F.);
#163=PRESENTATION_STYLE_ASSIGNMENT((#435));
#164=ADVANCED_FACE('',(#436),#437,.T.);
#165=PRESENTATION_STYLE_ASSIGNMENT((#438));
#166=ADVANCED_FACE('',(#439),#440,.F.);
#167=PRESENTATION_STYLE_ASSIGNMENT((#441));
#168=ADVANCED_FACE('',(#442,#443),#444,.F.);
#169=PRESENTATION_STYLE_ASSIGNMENT((#445));
#170=ADVANCED_FACE('',(#446,#447),#448,.F.);
#171=PRESENTATION_STYLE_ASSIGNMENT((#449));
#172=ADVANCED_FACE('',(#450),#451,.F.);
#173=PRESENTATION_STYLE_ASSIGNMENT((#452));
#174=ADVANCED_FACE('',(#453,#454),#455,.F.);
#175=PRESENTATION_STYLE_ASSIGNMENT((#456));
#176=ADVANCED_FACE('',(#457),#458,.T.);
#177=PRESENTATION_STYLE_ASSIGNMENT((#459));
#178=ADVANCED_FACE('',(#460,#461),#462,.T.);
#179=PRESENTATION_STYLE_ASSIGNMENT((#463));
#180=ADVANCED_FACE('',(#464,#465),#466,.F.);
#181=PRESENTATION_STYLE_ASSIGNMENT((#467));
#182=ADVANCED_FACE('',(#468,#469),#470,.F.);
#183=PRESENTATION_STYLE_ASSIGNMENT((#471));
#184=ADVANCED_FACE('',(#472,#473),#474,.F.);
#185=PRESENTATION_STYLE_ASSIGNMENT((#475));
#186=ADVANCED_FACE('',(#476,#477),#478,.F.);
#187=PRESENTATION_STYLE_ASSIGNMENT((#479));
#188=ADVANCED_FACE('',(#480,#481),#482,.F.);
#189=PRESENTATION_STYLE_ASSIGNMENT((#483));
#190=ADVANCED_FACE('',(#484,#485),#486,.F.);
#191=PRESENTATION_STYLE_ASSIGNMENT((#487));
#192=ADVANCED_FACE('',(#488,#489),#490,.F.);
#193=PRESENTATION_STYLE_ASSIGNMENT((#491));
#194=EDGE_CURVE('',#492,#492,#493,.T.);
#195=PRESENTATION_STYLE_ASSIGNMENT((#494));
#196=EDGE_CURVE('',#495,#495,#496,.F.);
#197=PRESENTATION_STYLE_ASSIGNMENT((#497));
#198=EDGE_CURVE('',#498,#498,#499,.F.);
#199=PRESENTATION_STYLE_ASSIGNMENT((#500));
#200=EDGE_CURVE('',#501,#501,#502,.F.);
#201=PRESENTATION_STYLE_ASSIGNMENT((#503));
#202=EDGE_CURVE('',#504,#504,#505,.F.);
#203=PRESENTATION_STYLE_ASSIGNMENT((#506));
#204=EDGE_CURVE('',#507,#507,#508,.T.);
#205=PRESENTATION_STYLE_ASSIGNMENT((#509));
#206=EDGE_CURVE('',#510,#510,#511,.T.);
#207=PRESENTATION_STYLE_ASSIGNMENT((#512));
#208=EDGE_CURVE('',#513,#513,#514,.F.);
#209=PRESENTATION_STYLE_ASSIGNMENT((#515));
#210=EDGE_CURVE('',#516,#516,#517,.F.);
#211=PRESENTATION_STYLE_ASSIGNMENT((#518));
#212=EDGE_CURVE('',#519,#519,#520,.T.);
#213=PRESENTATION_STYLE_ASSIGNMENT((#521));
#214=EDGE_CURVE('',#522,#522,#523,.F.);
#215=PRESENTATION_STYLE_ASSIGNMENT((#524));
#216=EDGE_CURVE('',#525,#525,#526,.T.);
#217=PRESENTATION_STYLE_ASSIGNMENT((#527));
#218=EDGE_CURVE('',#528,#529,#530,.T.);
#219=PRESENTATION_STYLE_ASSIGNMENT((#531));
#220=EDGE_CURVE('',#529,#532,#533,.T.);
#221=PRESENTATION_STYLE_ASSIGNMENT((#534));
#222=EDGE_CURVE('',#532,#535,#536,.T.);
#223=PRESENTATION_STYLE_ASSIGNMENT((#537));
#224=EDGE_CURVE('',#535,#528,#538,.T.);
#225=PRESENTATION_STYLE_ASSIGNMENT((#539));
#226=EDGE_CURVE('',#540,#541,#542,.T.);
#227=PRESENTATION_STYLE_ASSIGNMENT((#543));
#228=EDGE_CURVE('',#541,#540,#544,.T.);
#229=PRESENTATION_STYLE_ASSIGNMENT((#545));
#230=EDGE_CURVE('',#546,#546,#547,.T.);
#231=PRESENTATION_STYLE_ASSIGNMENT((#548));
#232=EDGE_CURVE('',#549,#549,#550,.T.);
#233=PRESENTATION_STYLE_ASSIGNMENT((#551));
#234=EDGE_CURVE('',#552,#552,#553,.F.);
#235=PRESENTATION_STYLE_ASSIGNMENT((#554));
#236=EDGE_CURVE('',#555,#555,#556,.T.);
#237=PRESENTATION_STYLE_ASSIGNMENT((#557));
#238=EDGE_CURVE('',#558,#558,#559,.T.);
#239=PRESENTATION_STYLE_ASSIGNMENT((#560));
#240=EDGE_CURVE('',#561,#561,#562,.F.);
#241=PRESENTATION_STYLE_ASSIGNMENT((#563));
#242=EDGE_CURVE('',#564,#564,#565,.F.);
#243=PRESENTATION_STYLE_ASSIGNMENT((#566));
#244=EDGE_CURVE('',#567,#567,#568,.T.);
#245=PRESENTATION_STYLE_ASSIGNMENT((#569));
#246=EDGE_CURVE('',#570,#570,#571,.T.);
#247=PRESENTATION_STYLE_ASSIGNMENT((#572));
#248=EDGE_CURVE('',#573,#573,#574,.F.);
#249=PRESENTATION_STYLE_ASSIGNMENT((#575));
#250=EDGE_CURVE('',#576,#576,#577,.F.);
#251=PRESENTATION_STYLE_ASSIGNMENT((#578));
#252=EDGE_CURVE('',#579,#579,#580,.T.);
#253=PRESENTATION_STYLE_ASSIGNMENT((#581));
#254=EDGE_CURVE('',#582,#582,#583,.F.);
#255=PRESENTATION_STYLE_ASSIGNMENT((#584));
#256=EDGE_CURVE('',#585,#585,#586,.T.);
#257=PRESENTATION_STYLE_ASSIGNMENT((#587));
#258=EDGE_CURVE('',#588,#589,#590,.T.);
#259=PRESENTATION_STYLE_ASSIGNMENT((#591));
#260=EDGE_CURVE('',#592,#588,#593,.T.);
#261=PRESENTATION_STYLE_ASSIGNMENT((#594));
#262=EDGE_CURVE('',#595,#592,#596,.T.);
#263=PRESENTATION_STYLE_ASSIGNMENT((#597));
#264=EDGE_CURVE('',#589,#595,#598,.T.);
#265=PRESENTATION_STYLE_ASSIGNMENT((#599));
#266=EDGE_CURVE('',#600,#600,#601,.T.);
#267=PRESENTATION_STYLE_ASSIGNMENT((#602));
#268=EDGE_CURVE('',#603,#603,#604,.T.);
#269=PRESENTATION_STYLE_ASSIGNMENT((#605));
#270=EDGE_CURVE('',#606,#606,#607,.T.);
#271=PRESENTATION_STYLE_ASSIGNMENT((#608));
#272=EDGE_CURVE('',#609,#609,#610,.T.);
#273=PRESENTATION_STYLE_ASSIGNMENT((#611));
#274=EDGE_CURVE('',#612,#612,#613,.F.);
#275=PRESENTATION_STYLE_ASSIGNMENT((#614));
#276=EDGE_CURVE('',#589,#529,#615,.T.);
#277=PRESENTATION_STYLE_ASSIGNMENT((#616));
#278=EDGE_CURVE('',#595,#532,#617,.T.);
#279=PRESENTATION_STYLE_ASSIGNMENT((#618));
#280=EDGE_CURVE('',#592,#535,#619,.T.);
#281=PRESENTATION_STYLE_ASSIGNMENT((#620));
#282=EDGE_CURVE('',#588,#528,#621,.T.);
#283=PRESENTATION_STYLE_ASSIGNMENT((#622));
#284=EDGE_CURVE('',#623,#623,#624,.T.);
#285=PRESENTATION_STYLE_ASSIGNMENT((#625));
#286=EDGE_CURVE('',#626,#626,#627,.T.);
#287=PRESENTATION_STYLE_ASSIGNMENT((#628));
#288=EDGE_CURVE('',#629,#629,#630,.T.);
#289=PRESENTATION_STYLE_ASSIGNMENT((#631));
#290=EDGE_CURVE('',#540,#632,#633,.F.);
#291=PRESENTATION_STYLE_ASSIGNMENT((#634));
#292=EDGE_CURVE('',#635,#632,#636,.T.);
#293=PRESENTATION_STYLE_ASSIGNMENT((#637));
#294=EDGE_CURVE('',#635,#541,#638,.T.);
#295=PRESENTATION_STYLE_ASSIGNMENT((#639));
#296=EDGE_CURVE('',#635,#632,#640,.F.);
#297=PRESENTATION_STYLE_ASSIGNMENT((#641));
#298=EDGE_CURVE('',#642,#642,#643,.F.);
#299=PRESENTATION_STYLE_ASSIGNMENT((#644));
#300=EDGE_CURVE('',#645,#645,#646,.F.);
#301=PRESENTATION_STYLE_ASSIGNMENT((#647));
#302=EDGE_CURVE('',#648,#648,#649,.F.);
#303=PRESENTATION_STYLE_ASSIGNMENT((#650));
#304=EDGE_CURVE('',#651,#651,#652,.F.);
#305=PRESENTATION_STYLE_ASSIGNMENT((#653));
#306=EDGE_CURVE('',#654,#654,#655,.F.);
#307=PRESENTATION_STYLE_ASSIGNMENT((#656));
#308=EDGE_CURVE('',#657,#657,#658,.F.);
#309=PRESENTATION_STYLE_ASSIGNMENT((#659));
#310=MANIFOLD_SOLID_BREP('1',#660);
#311=PRODUCT('1','1','PART-1-DESC',(#661));
#312=PRODUCT_DEFINITION('NONE','NONE',#662,#2);
#313=AXIS2_PLACEMENT_3D('',#663,#664,#665);
#316=LENGTH_MEASURE_WITH_UNIT(LENGTH_MEASURE(1.0),#666);
#319=DIMENSIONAL_EXPONENTS(1.0,0.0,0.0,0.0,0.0,0.0,0.0);
#321=DIMENSIONAL_EXPONENTS(0.0,0.0,0.0,0.0,0.0,0.0,0.0);
#327=SURFACE_STYLE_USAGE(.BOTH.,#667);
#328=FACE_BOUND('',#668,.T.);
#329=FACE_BOUND('',#669,.T.);
#330=FACE_BOUND('',#670,.T.);
#331=FACE_BOUND('',#671,.T.);
#332=FACE_BOUND('',#672,.T.);
#333=FACE_BOUND('',#673,.T.);
#334=FACE_BOUND('',#674,.T.);
#335=FACE_BOUND('',#675,.T.);
#336=FACE_BOUND('',#676,.T.);
#337=FACE_BOUND('',#677,.T.);
#338=FACE_BOUND('',#678,.T.);
#339=FACE_BOUND('',#679,.T.);
#340=FACE_OUTER_BOUND('',#680,.T.);
#341=FACE_BOUND('',#681,.T.);
#342=FACE_BOUND('',#682,.T.);
#343=FACE_BOUND('',#683,.T.);
#344=PLANE('',#684);
#345=SURFACE_STYLE_USAGE(.BOTH.,#685);
#346=FACE_BOUND('',#686,.T.);
#347=FACE_BOUND('',#687,.T.);
#348=CYLINDRICAL_SURFACE('',#688,8.0);
#349=SURFACE_STYLE_USAGE(.BOTH.,#689);
#350=FACE_BOUND('',#690,.T.);
#351=FACE_OUTER_BOUND('',#691,.T.);
#352=PLANE('',#692);
#353=SURFACE_STYLE_USAGE(.BOTH.,#693);
#354=FACE_BOUND('',#694,.T.);
#355=FACE_OUTER_BOUND('',#695,.T.);
#356=PLANE('',#696);
#357=SURFACE_STYLE_USAGE(.BOTH.,#697);
#358=FACE_BOUND('',#698,.T.);
#359=FACE_BOUND('',#699,.T.);
#360=FACE_BOUND('',#700,.T.);
#361=FACE_BOUND('',#701,.T.);
#362=FACE_BOUND('',#702,.T.);
#363=FACE_BOUND('',#703,.T.);
#364=FACE_BOUND('',#704,.T.);
#365=FACE_BOUND('',#705,.T.);
#366=FACE_OUTER_BOUND('',#706,.T.);
#367=FACE_BOUND('',#707,.T.);
#368=FACE_BOUND('',#708,.T.);
#369=FACE_BOUND('',#709,.T.);
#370=FACE_BOUND('',#710,.T.);
#371=PLANE('',#711);
#372=SURFACE_STYLE_USAGE(.BOTH.,#712);
#373=FACE_BOUND('',#713,.T.);
#374=FACE_BOUND('',#714,.T.);
#375=CYLINDRICAL_SURFACE('',#715,8.0);
#376=SURFACE_STYLE_USAGE(.BOTH.,#716);
#377=FACE_OUTER_BOUND('',#717,.T.);
#378=PLANE('',#718);
#379=SURFACE_STYLE_USAGE(.BOTH.,#719);
#380=FACE_OUTER_BOUND('',#720,.T.);
#381=PLANE('',#721);
#382=SURFACE_STYLE_USAGE(.BOTH.,#722);
#383=FACE_OUTER_BOUND('',#723,.T.);
#384=PLANE('',#724);
#385=SURFACE_STYLE_USAGE(.BOTH.,#725);
#386=FACE_OUTER_BOUND('',#726,.T.);
#387=PLANE('',#727);
#388=SURFACE_STYLE_USAGE(.BOTH.,#728);
#389=FACE_BOUND('',#729,.T.);
#390=FACE_BOUND('',#730,.T.);
#391=CYLINDRICAL_SURFACE('',#731,10.0);
#392=SURFACE_STYLE_USAGE(.BOTH.,#732);
#393=FACE_BOUND('',#733,.T.);
#394=FACE_BOUND('',#734,.T.);
#395=CYLINDRICAL_SURFACE('',#735,10.0);
#396=SURFACE_STYLE_USAGE(.BOTH.,#736);
#397=FACE_BOUND('',#737,.T.);
#398=FACE_BOUND('',#738,.T.);
#399=CYLINDRICAL_SURFACE('',#739,10.0);
#400=SURFACE_STYLE_USAGE(.BOTH.,#740);
#401=FACE_BOUND('',#741,.T.);
#402=FACE_BOUND('',#742,.T.);
#403=CYLINDRICAL_SURFACE('',#743,10.0);
#404=SURFACE_STYLE_USAGE(.BOTH.,#744);
#405=FACE_BOUND('',#745,.T.);
#406=FACE_BOUND('',#746,.T.);
#407=CYLINDRICAL_SURFACE('',#747,16.0);
#408=SURFACE_STYLE_USAGE(.BOTH.,#748);
#409=FACE_BOUND('',#749,.T.);
#410=FACE_BOUND('',#750,.T.);
#411=CYLINDRICAL_SURFACE('',#751,16.0);
#412=SURFACE_STYLE_USAGE(.BOTH.,#752);
#413=FACE_BOUND('',#753,.T.);
#414=FACE_BOUND('',#754,.T.);
#415=CYLINDRICAL_SURFACE('',#755,16.0);
#416=SURFACE_STYLE_USAGE(.BOTH.,#756);
#417=FACE_BOUND('',#757,.T.);
#418=FACE_BOUND('',#758,.T.);
#419=CYLINDRICAL_SURFACE('',#759,8.0);
#420=SURFACE_STYLE_USAGE(.BOTH.,#760);
#421=FACE_BOUND('',#761,.T.);
#422=FACE_BOUND('',#762,.T.);
#423=CYLINDRICAL_SURFACE('',#763,8.0);
#424=SURFACE_STYLE_USAGE(.BOTH.,#764);
#425=FACE_BOUND('',#765,.T.);
#426=FACE_BOUND('',#766,.T.);
#427=CYLINDRICAL_SURFACE('',#767,8.0);
#428=SURFACE_STYLE_USAGE(.BOTH.,#768);
#429=FACE_BOUND('',#769,.T.);
#430=FACE_BOUND('',#770,.T.);
#431=CYLINDRICAL_SURFACE('',#771,8.0);
#432=SURFACE_STYLE_USAGE(.BOTH.,#772);
#433=FACE_OUTER_BOUND('',#773,.T.);
#434=CYLINDRICAL_SURFACE('',#774,54.5);
#435=SURFACE_STYLE_USAGE(.BOTH.,#775);
#436=FACE_OUTER_BOUND('',#776,.T.);
#437=PLANE('',#777);
#438=SURFACE_STYLE_USAGE(.BOTH.,#778);
#439=FACE_OUTER_BOUND('',#779,.T.);
#440=CYLINDRICAL_SURFACE('',#780,54.5);
#441=SURFACE_STYLE_USAGE(.BOTH.,#781);
#442=FACE_BOUND('',#782,.T.);
#443=FACE_BOUND('',#783,.T.);
#444=CYLINDRICAL_SURFACE('',#784,16.0);
#445=SURFACE_STYLE_USAGE(.BOTH.,#785);
#446=FACE_BOUND('',#786,.T.);
#447=FACE_BOUND('',#787,.T.);
#448=CYLINDRICAL_SURFACE('',#788,3.5);
#449=SURFACE_STYLE_USAGE(.BOTH.,#789);
#450=FACE_OUTER_BOUND('',#790,.T.);
#451=PLANE('',#791);
#452=SURFACE_STYLE_USAGE(.BOTH.,#792);
#453=FACE_BOUND('',#793,.T.);
#454=FACE_BOUND('',#794,.T.);
#455=CYLINDRICAL_SURFACE('',#795,3.5);
#456=SURFACE_STYLE_USAGE(.BOTH.,#796);
#457=FACE_OUTER_BOUND('',#797,.T.);
#458=PLANE('',#798);
#459=SURFACE_STYLE_USAGE(.BOTH.,#799);
#460=FACE_OUTER_BOUND('',#800,.T.);
#461=FACE_BOUND('',#801,.T.);
#462=PLANE('',#802);
#463=SURFACE_STYLE_USAGE(.BOTH.,#803);
#464=FACE_BOUND('',#804,.T.);
#465=FACE_BOUND('',#805,.T.);
#466=CYLINDRICAL_SURFACE('',#806,16.0);
#467=SURFACE_STYLE_USAGE(.BOTH.,#807);
#468=FACE_BOUND('',#808,.T.);
#469=FACE_BOUND('',#809,.T.);
#470=CYLINDRICAL_SURFACE('',#810,16.0);
#471=SURFACE_STYLE_USAGE(.BOTH.,#811);
#472=FACE_BOUND('',#812,.T.);
#473=FACE_OUTER_BOUND('',#813,.T.);
#474=PLANE('',#814);
#475=SURFACE_STYLE_USAGE(.BOTH.,#815);
#476=FACE_BOUND('',#816,.T.);
#477=FACE_BOUND('',#817,.T.);
#478=CYLINDRICAL_SURFACE('',#818,16.0);
#479=SURFACE_STYLE_USAGE(.BOTH.,#819);
#480=FACE_BOUND('',#820,.T.);
#481=FACE_OUTER_BOUND('',#821,.T.);
#482=PLANE('',#822);
#483=SURFACE_STYLE_USAGE(.BOTH.,#823);
#484=FACE_BOUND('',#824,.T.);
#485=FACE_BOUND('',#825,.T.);
#486=CYLINDRICAL_SURFACE('',#826,16.0);
#487=SURFACE_STYLE_USAGE(.BOTH.,#827);
#488=FACE_BOUND('',#828,.T.);
#489=FACE_OUTER_BOUND('',#829,.T.);
#490=PLANE('',#830);
#491=CURVE_STYLE('',#831,POSITIVE_LENGTH_MEASURE(1.0E-006),#832);
#492=VERTEX_POINT('',#833);
#493=CIRCLE('',#834,8.0);
#494=CURVE_STYLE('',#835,POSITIVE_LENGTH_MEASURE(1.0E-006),#836);
#495=VERTEX_POINT('',#837);
#496=CIRCLE('',#838,8.0);
#497=CURVE_STYLE('',#839,POSITIVE_LENGTH_MEASURE(1.0E-006),#840);
#498=VERTEX_POINT('',#841);
#499=CIRCLE('',#842,8.0);
#500=CURVE_STYLE('',#843,POSITIVE_LENGTH_MEASURE(1.0E-006),#844);
#501=VERTEX_POINT('',#845);
#502=CIRCLE('',#846,8.0);
#503=CURVE_STYLE('',#847,POSITIVE_LENGTH_MEASURE(1.0E-006),#848);
#504=VERTEX_POINT('',#849);
#505=CIRCLE('',#850,16.0);
#506=CURVE_STYLE('',#851,POSITIVE_LENGTH_MEASURE(1.0E-006),#852);
#507=VERTEX_POINT('',#853);
#508=CIRCLE('',#854,10.0);
#509=CURVE_STYLE('',#855,POSITIVE_LENGTH_MEASURE(1.0E-006),#856);
#510=VERTEX_POINT('',#857);
#511=CIRCLE('',#858,10.0);
#512=CURVE_STYLE('',#859,POSITIVE_LENGTH_MEASURE(1.0E-006),#860);
#513=VERTEX_POINT('',#861);
#514=CIRCLE('',#862,10.0);
#515=CURVE_STYLE('',#863,POSITIVE_LENGTH_MEASURE(1.0E-006),#864);
#516=VERTEX_POINT('',#865);
#517=CIRCLE('',#866,16.0);
#518=CURVE_STYLE('',#867,POSITIVE_LENGTH_MEASURE(1.0E-006),#868);
#519=VERTEX_POINT('',#869);
#520=CIRCLE('',#870,16.0);
#521=CURVE_STYLE('',#871,POSITIVE_LENGTH_MEASURE(1.0E-006),#872);
#522=VERTEX_POINT('',#873);
#523=CIRCLE('',#874,10.0);
#524=CURVE_STYLE('',#875,POSITIVE_LENGTH_MEASURE(1.0E-006),#876);
#525=VERTEX_POINT('',#877);
#526=CIRCLE('',#878,16.0);
#527=CURVE_STYLE('',#879,POSITIVE_LENGTH_MEASURE(1.0E-006),#880);
#528=VERTEX_POINT('',#881);
#529=VERTEX_POINT('',#882);
#530=LINE('',#883,#884);
#531=CURVE_STYLE('',#885,POSITIVE_LENGTH_MEASURE(1.0E-006),#886);
#532=VERTEX_POINT('',#887);
#533=LINE('',#888,#889);
#534=CURVE_STYLE('',#890,POSITIVE_LENGTH_MEASURE(1.0E-006),#891);
#535=VERTEX_POINT('',#892);
#536=LINE('',#893,#894);
#537=CURVE_STYLE('',#895,POSITIVE_LENGTH_MEASURE(1.0E-006),#896);
#538=LINE('',#897,#898);
#539=CURVE_STYLE('',#899,POSITIVE_LENGTH_MEASURE(1.0E-006),#900);
#540=VERTEX_POINT('',#901);
#541=VERTEX_POINT('',#902);
#542=CIRCLE('',#903,54.5);
#543=CURVE_STYLE('',#904,POSITIVE_LENGTH_MEASURE(1.0E-006),#905);
#544=CIRCLE('',#906,54.5);
#545=CURVE_STYLE('',#907,POSITIVE_LENGTH_MEASURE(1.0E-006),#908);
#546=VERTEX_POINT('',#909);
#547=CIRCLE('',#910,8.0);
#548=CURVE_STYLE('',#911,POSITIVE_LENGTH_MEASURE(1.0E-006),#912);
#549=VERTEX_POINT('',#913);
#550=CIRCLE('',#914,8.0);
#551=CURVE_STYLE('',#915,POSITIVE_LENGTH_MEASURE(1.0E-006),#916);
#552=VERTEX_POINT('',#917);
#553=CIRCLE('',#918,8.0);
#554=CURVE_STYLE('',#919,POSITIVE_LENGTH_MEASURE(1.0E-006),#920);
#555=VERTEX_POINT('',#921);
#556=CIRCLE('',#922,3.5);
#557=CURVE_STYLE('',#923,POSITIVE_LENGTH_MEASURE(1.0E-006),#924);
#558=VERTEX_POINT('',#925);
#559=CIRCLE('',#926,3.5);
#560=CURVE_STYLE('',#927,POSITIVE_LENGTH_MEASURE(1.0E-006),#928);
#561=VERTEX_POINT('',#929);
#562=CIRCLE('',#930,8.0);
#563=CURVE_STYLE('',#931,POSITIVE_LENGTH_MEASURE(1.0E-006),#932);
#564=VERTEX_POINT('',#933);
#565=CIRCLE('',#934,16.0);
#566=CURVE_STYLE('',#935,POSITIVE_LENGTH_MEASURE(1.0E-006),#936);
#567=VERTEX_POINT('',#937);
#568=CIRCLE('',#938,10.0);
#569=CURVE_STYLE('',#939,POSITIVE_LENGTH_MEASURE(1.0E-006),#940);
#570=VERTEX_POINT('',#941);
#571=CIRCLE('',#942,10.0);
#572=CURVE_STYLE('',#943,POSITIVE_LENGTH_MEASURE(1.0E-006),#944);
#573=VERTEX_POINT('',#945);
#574=CIRCLE('',#946,10.0);
#575=CURVE_STYLE('',#947,POSITIVE_LENGTH_MEASURE(1.0E-006),#948);
#576=VERTEX_POINT('',#949);
#577=CIRCLE('',#950,16.0);
#578=CURVE_STYLE('',#951,POSITIVE_LENGTH_MEASURE(1.0E-006),#952);
#579=VERTEX_POINT('',#953);
#580=CIRCLE('',#954,16.0);
#581=CURVE_STYLE('',#955,POSITIVE_LENGTH_MEASURE(1.0E-006),#956);
#582=VERTEX_POINT('',#957);
#583=CIRCLE('',#958,10.0);
#584=CURVE_STYLE('',#959,POSITIVE_LENGTH_MEASURE(1.0E-006),#960);
#585=VERTEX_POINT('',#961);
#586=CIRCLE('',#962,16.0);
#587=CURVE_STYLE('',#963,POSITIVE_LENGTH_MEASURE(1.0E-006),#964);
#588=VERTEX_POINT('',#965);
#589=VERTEX_POINT('',#966);
#590=LINE('',#967,#968);
#591=CURVE_STYLE('',#969,POSITIVE_LENGTH_MEASURE(1.0E-006),#970);
#592=VERTEX_POINT('',#971);
#593=LINE('',#972,#973);
#594=CURVE_STYLE('',#974,POSITIVE_LENGTH_MEASURE(1.0E-006),#975);
#595=VERTEX_POINT('',#976);
#596=LINE('',#977,#978);
#597=CURVE_STYLE('',#979,POSITIVE_LENGTH_MEASURE(1.0E-006),#980);
#598=LINE('',#981,#982);
#599=CURVE_STYLE('',#983,POSITIVE_LENGTH_MEASURE(1.0E-006),#984);
#600=VERTEX_POINT('',#985);
#601=CIRCLE('',#986,16.0);
#602=CURVE_STYLE('',#987,POSITIVE_LENGTH_MEASURE(1.0E-006),#988);
#603=VERTEX_POINT('',#989);
#604=CIRCLE('',#990,16.0);
#605=CURVE_STYLE('',#991,POSITIVE_LENGTH_MEASURE(1.0E-006),#992);
#606=VERTEX_POINT('',#993);
#607=CIRCLE('',#994,16.0);
#608=CURVE_STYLE('',#995,POSITIVE_LENGTH_MEASURE(1.0E-006),#996);
#609=VERTEX_POINT('',#997);
#610=CIRCLE('',#998,16.0);
#611=CURVE_STYLE('',#999,POSITIVE_LENGTH_MEASURE(1.0E-006),#1000);
#612=VERTEX_POINT('',#1001);
#613=CIRCLE('',#1002,8.0);
#614=CURVE_STYLE('',#1003,POSITIVE_LENGTH_MEASURE(1.0E-006),#1004);
#615=LINE('',#1005,#1006);
#616=CURVE_STYLE('',#1007,POSITIVE_LENGTH_MEASURE(1.0E-006),#1008);
#617=LINE('',#1009,#1010);
#618=CURVE_STYLE('',#1011,POSITIVE_LENGTH_MEASURE(1.0E-006),#1012);
#619=LINE('',#1013,#1014);
#620=CURVE_STYLE('',#1015,POSITIVE_LENGTH_MEASURE(1.0E-006),#1016);
#621=LINE('',#1017,#1018);
#622=CURVE_STYLE('',#1019,POSITIVE_LENGTH_MEASURE(1.0E-006),#1020);
#623=VERTEX_POINT('',#1021);
#624=CIRCLE('',#1022,8.0);
#625=CURVE_STYLE('',#1023,POSITIVE_LENGTH_MEASURE(1.0E-006),#1024);
#626=VERTEX_POINT('',#1025);
#627=CIRCLE('',#1026,8.0);
#628=CURVE_STYLE('',#1027,POSITIVE_LENGTH_MEASURE(1.0E-006),#1028);
#629=VERTEX_POINT('',#1029);
#630=CIRCLE('',#1030,8.0);
#631=CURVE_STYLE('',#1031,POSITIVE_LENGTH_MEASURE(1.0E-006),#1032);
#632=VERTEX_POINT('',#1033);
#633=LINE('',#1034,#1035);
#634=CURVE_STYLE('',#1036,POSITIVE_LENGTH_MEASURE(1.0E-006),#1037);
#635=VERTEX_POINT('',#1038);
#636=CIRCLE('',#1039,54.5);
#637=CURVE_STYLE('',#1040,POSITIVE_LENGTH_MEASURE(1.0E-006),#1041);
#638=LINE('',#1042,#1043);
#639=CURVE_STYLE('',#1044,POSITIVE_LENGTH_MEASURE(1.0E-006),#1045);
#640=CIRCLE('',#1046,54.5);
#641=CURVE_STYLE('',#1047,POSITIVE_LENGTH_MEASURE(1.0E-006),#1048);
#642=VERTEX_POINT('',#1049);
#643=CIRCLE('',#1050,3.5);
#644=CURVE_STYLE('',#1051,POSITIVE_LENGTH_MEASURE(1.0E-006),#1052);
#645=VERTEX_POINT('',#1053);
#646=CIRCLE('',#1054,3.5);
#647=CURVE_STYLE('',#1055,POSITIVE_LENGTH_MEASURE(1.0E-006),#1056);
#648=VERTEX_POINT('',#1057);
#649=CIRCLE('',#1058,16.0);
#650=CURVE_STYLE('',#1059,POSITIVE_LENGTH_MEASURE(1.0E-006),#1060);
#651=VERTEX_POINT('',#1061);
#652=CIRCLE('',#1062,16.0);
#653=CURVE_STYLE('',#1063,POSITIVE_LENGTH_MEASURE(1.0E-006),#1064);
#654=VERTEX_POINT('',#1065);
#655=CIRCLE('',#1066,16.0);
#656=CURVE_STYLE('',#1067,POSITIVE_LENGTH_MEASURE(1.0E-006),#1068);
#657=VERTEX_POINT('',#1069);
#658=CIRCLE('',#1070,16.0);
#659=SURFACE_STYLE_USAGE(.BOTH.,#1071);
#660=CLOSED_SHELL('',(#120,#122,#124,#126,#128,#130,#132,#134,#136,#138,#140,#142,#144,#146,#148,#150,#152,#154,#156,#158,#160,#162,#164,#166,#168,#170,#172,#174,#176,#178,#180,#182,#184,#186,#188,#190,#192));
#661=PRODUCT_CONTEXT('',#106,'mechanical');
#662=PRODUCT_DEFINITION_FORMATION_WITH_SPECIFIED_SOURCE(' ','NONE',#311,.NOT_KNOWN.);
#663=CARTESIAN_POINT('',(0.0,0.0,0.0));
#664=DIRECTION('',(0.0,0.0,1.0));
#665=DIRECTION('',(1.0,0.0,0.0));
#666= (NAMED_UNIT(#319)LENGTH_UNIT()SI_UNIT(.MILLI.,.METRE.));
#667=SURFACE_SIDE_STYLE('',(#1073));
#668=EDGE_LOOP('',(#1074));
#669=EDGE_LOOP('',(#1075));
#670=EDGE_LOOP('',(#1076));
#671=EDGE_LOOP('',(#1077));
#672=EDGE_LOOP('',(#1078));
#673=EDGE_LOOP('',(#1079));
#674=EDGE_LOOP('',(#1080));
#675=EDGE_LOOP('',(#1081));
#676=EDGE_LOOP('',(#1082));
#677=EDGE_LOOP('',(#1083));
#678=EDGE_LOOP('',(#1084));
#679=EDGE_LOOP('',(#1085));
#680=EDGE_LOOP('',(#1086,#1087,#1088,#1089));
#681=EDGE_LOOP('',(#1090,#1091));
#682=EDGE_LOOP('',(#1092));
#683=EDGE_LOOP('',(#1093));
#684=AXIS2_PLACEMENT_3D('',#1094,#1095,#1096);
#685=SURFACE_SIDE_STYLE('',(#1097));
#686=EDGE_LOOP('',(#1098));
#687=EDGE_LOOP('',(#1099));
#688=AXIS2_PLACEMENT_3D('',#1100,#1101,#1102);
#689=SURFACE_SIDE_STYLE('',(#1103));
#690=EDGE_LOOP('',(#1104));
#691=EDGE_LOOP('',(#1105));
#692=AXIS2_PLACEMENT_3D('',#1106,#1107,#1108);
#693=SURFACE_SIDE_STYLE('',(#1109));
#694=EDGE_LOOP('',(#1110));
#695=EDGE_LOOP('',(#1111));
#696=AXIS2_PLACEMENT_3D('',#1112,#1113,#1114);
#697=SURFACE_SIDE_STYLE('',(#1115));
#698=EDGE_LOOP('',(#1116));
#699=EDGE_LOOP('',(#1117));
#700=EDGE_LOOP('',(#1118));
#701=EDGE_LOOP('',(#1119));
#702=EDGE_LOOP('',(#1120));
#703=EDGE_LOOP('',(#1121));
#704=EDGE_LOOP('',(#1122));
#705=EDGE_LOOP('',(#1123));
#706=EDGE_LOOP('',(#1124,#1125,#1126,#1127));
#707=EDGE_LOOP('',(#1128));
#708=EDGE_LOOP('',(#1129));
#709=EDGE_LOOP('',(#1130));
#710=EDGE_LOOP('',(#1131));
#711=AXIS2_PLACEMENT_3D('',#1132,#1133,#1134);
#712=SURFACE_SIDE_STYLE('',(#1135));
#713=EDGE_LOOP('',(#1136));
#714=EDGE_LOOP('',(#1137));
#715=AXIS2_PLACEMENT_3D('',#1138,#1139,#1140);
#716=SURFACE_SIDE_STYLE('',(#1141));
#717=EDGE_LOOP('',(#1142,#1143,#1144,#1145));
#718=AXIS2_PLACEMENT_3D('',#1146,#1147,#1148);
#719=SURFACE_SIDE_STYLE('',(#1149));
#720=EDGE_LOOP('',(#1150,#1151,#1152,#1153));
#721=AXIS2_PLACEMENT_3D('',#1154,#1155,#1156);
#722=SURFACE_SIDE_STYLE('',(#1157));
#723=EDGE_LOOP('',(#1158,#1159,#1160,#1161));
#724=AXIS2_PLACEMENT_3D('',#1162,#1163,#1164);
#725=SURFACE_SIDE_STYLE('',(#1165));
#726=EDGE_LOOP('',(#1166,#1167,#1168,#1169));
#727=AXIS2_PLACEMENT_3D('',#1170,#1171,#1172);
#728=SURFACE_SIDE_STYLE('',(#1173));
#729=EDGE_LOOP('',(#1174));
#730=EDGE_LOOP('',(#1175));
#731=AXIS2_PLACEMENT_3D('',#1176,#1177,#1178);
#732=SURFACE_SIDE_STYLE('',(#1179));
#733=EDGE_LOOP('',(#1180));
#734=EDGE_LOOP('',(#1181));
#735=AXIS2_PLACEMENT_3D('',#1182,#1183,#1184);
#736=SURFACE_SIDE_STYLE('',(#1185));
#737=EDGE_LOOP('',(#1186));
#738=EDGE_LOOP('',(#1187));
#739=AXIS2_PLACEMENT_3D('',#1188,#1189,#1190);
#740=SURFACE_SIDE_STYLE('',(#1191));
#741=EDGE_LOOP('',(#1192));
#742=EDGE_LOOP('',(#1193));
#743=AXIS2_PLACEMENT_3D('',#1194,#1195,#1196);
#744=SURFACE_SIDE_STYLE('',(#1197));
#745=EDGE_LOOP('',(#1198));
#746=EDGE_LOOP('',(#1199));
#747=AXIS2_PLACEMENT_3D('',#1200,#1201,#1202);
#748=SURFACE_SIDE_STYLE('',(#1203));
#749=EDGE_LOOP('',(#1204));
#750=EDGE_LOOP('',(#1205));
#751=AXIS2_PLACEMENT_3D('',#1206,#1207,#1208);
#752=SURFACE_SIDE_STYLE('',(#1209));
#753=EDGE_LOOP('',(#1210));
#754=EDGE_LOOP('',(#1211));
#755=AXIS2_PLACEMENT_3D('',#1212,#1213,#1214);
#756=SURFACE_SIDE_STYLE('',(#1215));
#757=EDGE_LOOP('',(#1216));
#758=EDGE_LOOP('',(#1217));
#759=AXIS2_PLACEMENT_3D('',#1218,#1219,#1220);
#760=SURFACE_SIDE_STYLE('',(#1221));
#761=EDGE_LOOP('',(#1222));
#762=EDGE_LOOP('',(#1223));
#763=AXIS2_PLACEMENT_3D('',#1224,#1225,#1226);
#764=SURFACE_SIDE_STYLE('',(#1227));
#765=EDGE_LOOP('',(#1228));
#766=EDGE_LOOP('',(#1229));
#767=AXIS2_PLACEMENT_3D('',#1230,#1231,#1232);
#768=SURFACE_SIDE_STYLE('',(#1233));
#769=EDGE_LOOP('',(#1234));
#770=EDGE_LOOP('',(#1235));
#771=AXIS2_PLACEMENT_3D('',#1236,#1237,#1238);
#772=SURFACE_SIDE_STYLE('',(#1239));
#773=EDGE_LOOP('',(#1240,#1241,#1242,#1243));
#774=AXIS2_PLACEMENT_3D('',#1244,#1245,#1246);
#775=SURFACE_SIDE_STYLE('',(#1247));
#776=EDGE_LOOP('',(#1248,#1249));
#777=AXIS2_PLACEMENT_3D('',#1250,#1251,#1252);
#778=SURFACE_SIDE_STYLE('',(#1253));
#779=EDGE_LOOP('',(#1254,#1255,#1256,#1257));
#780=AXIS2_PLACEMENT_3D('',#1258,#1259,#1260);
#781=SURFACE_SIDE_STYLE('',(#1261));
#782=EDGE_LOOP('',(#1262));
#783=EDGE_LOOP('',(#1263));
#784=AXIS2_PLACEMENT_3D('',#1264,#1265,#1266);
#785=SURFACE_SIDE_STYLE('',(#1267));
#786=EDGE_LOOP('',(#1268));
#787=EDGE_LOOP('',(#1269));
#788=AXIS2_PLACEMENT_3D('',#1270,#1271,#1272);
#789=SURFACE_SIDE_STYLE('',(#1273));
#790=EDGE_LOOP('',(#1274));
#791=AXIS2_PLACEMENT_3D('',#1275,#1276,#1277);
#792=SURFACE_SIDE_STYLE('',(#1278));
#793=EDGE_LOOP('',(#1279));
#794=EDGE_LOOP('',(#1280));
#795=AXIS2_PLACEMENT_3D('',#1281,#1282,#1283);
#796=SURFACE_SIDE_STYLE('',(#1284));
#797=EDGE_LOOP('',(#1285));
#798=AXIS2_PLACEMENT_3D('',#1286,#1287,#1288);
#799=SURFACE_SIDE_STYLE('',(#1289));
#800=EDGE_LOOP('',(#1290));
#801=EDGE_LOOP('',(#1291));
#802=AXIS2_PLACEMENT_3D('',#1292,#1293,#1294);
#803=SURFACE_SIDE_STYLE('',(#1295));
#804=EDGE_LOOP('',(#1296));
#805=EDGE_LOOP('',(#1297));
#806=AXIS2_PLACEMENT_3D('',#1298,#1299,#1300);
#807=SURFACE_SIDE_STYLE('',(#1301));
#808=EDGE_LOOP('',(#1302));
#809=EDGE_LOOP('',(#1303));
#810=AXIS2_PLACEMENT_3D('',#1304,#1305,#1306);
#811=SURFACE_SIDE_STYLE('',(#1307));
#812=EDGE_LOOP('',(#1308));
#813=EDGE_LOOP('',(#1309));
#814=AXIS2_PLACEMENT_3D('',#1310,#1311,#1312);
#815=SURFACE_SIDE_STYLE('',(#1313));
#816=EDGE_LOOP('',(#1314));
#817=EDGE_LOOP('',(#1315));
#818=AXIS2_PLACEMENT_3D('',#1316,#1317,#1318);
#819=SURFACE_SIDE_STYLE('',(#1319));
#820=EDGE_LOOP('',(#1320));
#821=EDGE_LOOP('',(#1321));
#822=AXIS2_PLACEMENT_3D('',#1322,#1323,#1324);
#823=SURFACE_SIDE_STYLE('',(#1325));
#824=EDGE_LOOP('',(#1326));
#825=EDGE_LOOP('',(#1327));
#826=AXIS2_PLACEMENT_3D('',#1328,#1329,#1330);
#827=SURFACE_SIDE_STYLE('',(#1331));
#828=EDGE_LOOP('',(#1332));
#829=EDGE_LOOP('',(#1333));
#830=AXIS2_PLACEMENT_3D('',#1334,#1335,#1336);
#831=DRAUGHTING_PRE_DEFINED_CURVE_FONT('continuous');
#832=COLOUR_RGB('',0.941176474094391,0.627451002597809,0.431372553110123);
#833=CARTESIAN_POINT('',(-152.0,32.0,-41.9));
#834=AXIS2_PLACEMENT_3D('',#1337,#1338,#1339);
#835=DRAUGHTING_PRE_DEFINED_CURVE_FONT('continuous');
#836=COLOUR_RGB('',0.941176474094391,0.627451002597809,0.431372553110123);
#837=CARTESIAN_POINT('',(136.0,-32.0,-41.9));
#838=AXIS2_PLACEMENT_3D('',#1340,#1341,#1342);
#839=DRAUGHTING_PRE_DEFINED_CURVE_FONT('continuous');
#840=COLOUR_RGB('',0.941176474094391,0.627451002597809,0.431372553110123);
#841=CARTESIAN_POINT('',(136.0,32.0,-41.9));
#842=AXIS2_PLACEMENT_3D('',#1343,#1344,#1345);
#843=DRAUGHTING_PRE_DEFINED_CURVE_FONT('continuous');
#844=COLOUR_RGB('',0.941176474094391,0.627451002597809,0.431372553110123);
#845=CARTESIAN_POINT('',(-152.0,-32.0,-41.9));
#846=AXIS2_PLACEMENT_3D('',#1346,#1347,#1348);
#847=DRAUGHTING_PRE_DEFINED_CURVE_FONT('continuous');
#848=COLOUR_RGB('',0.941176474094391,0.627451002597809,0.431372553110123);
#849=CARTESIAN_POINT('',(117.0,83.0,-41.9));
#850=AXIS2_PLACEMENT_3D('',#1349,#1350,#1351);
#851=DRAUGHTING_PRE_DEFINED_CURVE_FONT('continuous');
#852=COLOUR_RGB('',0.941176474094391,0.627451002597809,0.431372553110123);
#853=CARTESIAN_POINT('',(70.0,-90.0,-41.9));
#854=AXIS2_PLACEMENT_3D('',#1352,#1353,#1354);
#855=DRAUGHTING_PRE_DEFINED_CURVE_FONT('continuous');
#856=COLOUR_RGB('',0.941176474094391,0.627451002597809,0.431372553110123);
#857=CARTESIAN_POINT('',(-90.0,90.0,-41.9));
#858=AXIS2_PLACEMENT_3D('',#1355,#1356,#1357);
#859=DRAUGHTING_PRE_DEFINED_CURVE_FONT('continuous');
#860=COLOUR_RGB('',0.941176474094391,0.627451002597809,0.431372553110123);
#861=CARTESIAN_POINT('',(-90.0,-90.0,-41.9));
#862=AXIS2_PLACEMENT_3D('',#1358,#1359,#1360);
#863=DRAUGHTING_PRE_DEFINED_CURVE_FONT('continuous');
#864=COLOUR_RGB('',0.941176474094391,0.627451002597809,0.431372553110123);
#865=CARTESIAN_POINT('',(-149.0,-83.0,-41.9));
#866=AXIS2_PLACEMENT_3D('',#1361,#1362,#1363);
#867=DRAUGHTING_PRE_DEFINED_CURVE_FONT('continuous');
#868=COLOUR_RGB('',0.941176474094391,0.627451002597809,0.431372553110123);
#869=CARTESIAN_POINT('',(-149.0,83.0,-41.9));
#870=AXIS2_PLACEMENT_3D('',#1364,#1365,#1366);
#871=DRAUGHTING_PRE_DEFINED_CURVE_FONT('continuous');
#872=COLOUR_RGB('',0.941176474094391,0.627451002597809,0.431372553110123);
#873=CARTESIAN_POINT('',(70.0,90.0,-41.9));
#874=AXIS2_PLACEMENT_3D('',#1367,#1368,#1369);
#875=DRAUGHTING_PRE_DEFINED_CURVE_FONT('continuous');
#876=COLOUR_RGB('',0.941176474094391,0.627451002597809,0.431372553110123);
#877=CARTESIAN_POINT('',(117.0,-83.0,-41.9));
#878=AXIS2_PLACEMENT_3D('',#1370,#1371,#1372);
#879=DRAUGHTING_PRE_DEFINED_CURVE_FONT('continuous');
#880=COLOUR_RGB('',0.941176474094391,0.627451002597809,0.431372553110123);
#881=CARTESIAN_POINT('',(165.0,115.0,-41.9));
#882=CARTESIAN_POINT('',(-165.0,115.0,-41.9));
#883=CARTESIAN_POINT('',(165.0,115.0,-41.9));
#884=VECTOR('',#1373,1000.0);
#885=DRAUGHTING_PRE_DEFINED_CURVE_FONT('continuous');
#886=COLOUR_RGB('',0.941176474094391,0.627451002597809,0.431372553110123);
#887=CARTESIAN_POINT('',(-165.0,-115.0,-41.9));
#888=CARTESIAN_POINT('',(-165.0,115.0,-41.9));
#889=VECTOR('',#1374,1000.0);
#890=DRAUGHTING_PRE_DEFINED_CURVE_FONT('continuous');
#891=COLOUR_RGB('',0.941176474094391,0.627451002597809,0.431372553110123);
#892=CARTESIAN_POINT('',(165.0,-115.0,-41.9));
#893=CARTESIAN_POINT('',(-165.0,-115.0,-41.9));
#894=VECTOR('',#1375,1000.0);
#895=DRAUGHTING_PRE_DEFINED_CURVE_FONT('continuous');
#896=COLOUR_RGB('',0.941176474094391,0.627451002597809,0.431372553110123);
#897=CARTESIAN_POINT('',(165.0,-115.0,-41.9));
#898=VECTOR('',#1376,1000.0);
#899=DRAUGHTING_PRE_DEFINED_CURVE_FONT('continuous');
#900=COLOUR_RGB('',0.941176474094391,0.627451002597809,0.431372553110123);
#901=CARTESIAN_POINT('',(-1.58865975929956E-010,16.3171688715744,-41.9));
#902=CARTESIAN_POINT('',(1.07441167074285E-010,-16.3171688717383,-41.9));
#903=AXIS2_PLACEMENT_3D('',#1377,#1378,#1379);
#904=DRAUGHTING_PRE_DEFINED_CURVE_FONT('continuous');
#905=COLOUR_RGB('',0.941176474094391,0.627451002597809,0.431372553110123);
#906=AXIS2_PLACEMENT_3D('',#1380,#1381,#1382);
#907=DRAUGHTING_PRE_DEFINED_CURVE_FONT('continuous');
#908=COLOUR_RGB('',0.941176474094391,0.627451002597809,0.431372553110123);
#909=CARTESIAN_POINT('',(-158.0,-54.0,-41.9));
#910=AXIS2_PLACEMENT_3D('',#1383,#1384,#1385);
#911=DRAUGHTING_PRE_DEFINED_CURVE_FONT('continuous');
#912=COLOUR_RGB('',0.941176474094391,0.627451002597809,0.431372553110123);
#913=CARTESIAN_POINT('',(142.0,54.0,-41.9));
#914=AXIS2_PLACEMENT_3D('',#1386,#1387,#1388);
#915=DRAUGHTING_PRE_DEFINED_CURVE_FONT('continuous');
#916=COLOUR_RGB('',0.941176474094391,0.627451002597809,0.431372553110123);
#917=CARTESIAN_POINT('',(142.0,54.0,-43.9));
#918=AXIS2_PLACEMENT_3D('',#1389,#1390,#1391);
#919=DRAUGHTING_PRE_DEFINED_CURVE_FONT('continuous');
#920=COLOUR_RGB('',0.941176474094391,0.627451002597809,0.431372553110123);
#921=CARTESIAN_POINT('',(146.5,54.0,-43.9));
#922=AXIS2_PLACEMENT_3D('',#1392,#1393,#1394);
#923=DRAUGHTING_PRE_DEFINED_CURVE_FONT('continuous');
#924=COLOUR_RGB('',0.941176474094391,0.627451002597809,0.431372553110123);
#925=CARTESIAN_POINT('',(-146.5,-54.0,-43.9));
#926=AXIS2_PLACEMENT_3D('',#1395,#1396,#1397);
#927=DRAUGHTING_PRE_DEFINED_CURVE_FONT('continuous');
#928=COLOUR_RGB('',0.941176474094391,0.627451002597809,0.431372553110123);
#929=CARTESIAN_POINT('',(-158.0,-54.0,-43.9));
#930=AXIS2_PLACEMENT_3D('',#1398,#1399,#1400);
#931=DRAUGHTING_PRE_DEFINED_CURVE_FONT('continuous');
#932=COLOUR_RGB('',0.941176474094391,0.627451002597809,0.431372553110123);
#933=CARTESIAN_POINT('',(117.0,83.0,-91.9));
#934=AXIS2_PLACEMENT_3D('',#1401,#1402,#1403);
#935=DRAUGHTING_PRE_DEFINED_CURVE_FONT('continuous');
#936=COLOUR_RGB('',0.941176474094391,0.627451002597809,0.431372553110123);
#937=CARTESIAN_POINT('',(70.0,-90.0,-91.9));
#938=AXIS2_PLACEMENT_3D('',#1404,#1405,#1406);
#939=DRAUGHTING_PRE_DEFINED_CURVE_FONT('continuous');
#940=COLOUR_RGB('',0.941176474094391,0.627451002597809,0.431372553110123);
#941=CARTESIAN_POINT('',(-90.0,90.0,-91.9));
#942=AXIS2_PLACEMENT_3D('',#1407,#1408,#1409);
#943=DRAUGHTING_PRE_DEFINED_CURVE_FONT('continuous');
#944=COLOUR_RGB('',0.941176474094391,0.627451002597809,0.431372553110123);
#945=CARTESIAN_POINT('',(-90.0,-90.0,-91.9));
#946=AXIS2_PLACEMENT_3D('',#1410,#1411,#1412);
#947=DRAUGHTING_PRE_DEFINED_CURVE_FONT('continuous');
#948=COLOUR_RGB('',0.941176474094391,0.627451002597809,0.431372553110123);
#949=CARTESIAN_POINT('',(-149.0,-83.0,-91.9));
#950=AXIS2_PLACEMENT_3D('',#1413,#1414,#1415);
#951=DRAUGHTING_PRE_DEFINED_CURVE_FONT('continuous');
#952=COLOUR_RGB('',0.941176474094391,0.627451002597809,0.431372553110123);
#953=CARTESIAN_POINT('',(-149.0,83.0,-91.9));
#954=AXIS2_PLACEMENT_3D('',#1416,#1417,#1418);
#955=DRAUGHTING_PRE_DEFINED_CURVE_FONT('continuous');
#956=COLOUR_RGB('',0.941176474094391,0.627451002597809,0.431372553110123);
#957=CARTESIAN_POINT('',(70.0,90.0,-91.9));
#958=AXIS2_PLACEMENT_3D('',#1419,#1420,#1421);
#959=DRAUGHTING_PRE_DEFINED_CURVE_FONT('continuous');
#960=COLOUR_RGB('',0.941176474094391,0.627451002597809,0.431372553110123);
#961=CARTESIAN_POINT('',(117.0,-83.0,-91.9));
#962=AXIS2_PLACEMENT_3D('',#1422,#1423,#1424);
#963=DRAUGHTING_PRE_DEFINED_CURVE_FONT('continuous');
#964=COLOUR_RGB('',0.941176474094391,0.627451002597809,0.431372553110123);
#965=CARTESIAN_POINT('',(165.0,115.0,-91.9));
#966=CARTESIAN_POINT('',(-165.0,115.0,-91.9));
#967=CARTESIAN_POINT('',(165.0,115.0,-91.9));
#968=VECTOR('',#1425,1000.0);
#969=DRAUGHTING_PRE_DEFINED_CURVE_FONT('continuous');
#970=COLOUR_RGB('',0.941176474094391,0.627451002597809,0.431372553110123);
#971=CARTESIAN_POINT('',(165.0,-115.0,-91.9));
#972=CARTESIAN_POINT('',(165.0,-115.0,-91.9));
#973=VECTOR('',#1426,1000.0);
#974=DRAUGHTING_PRE_DEFINED_CURVE_FONT('continuous');
#975=COLOUR_RGB('',0.941176474094391,0.627451002597809,0.431372553110123);
#976=CARTESIAN_POINT('',(-165.0,-115.0,-91.9));
#977=CARTESIAN_POINT('',(-165.0,-115.0,-91.9));
#978=VECTOR('',#1427,1000.0);
#979=DRAUGHTING_PRE_DEFINED_CURVE_FONT('continuous');
#980=COLOUR_RGB('',0.941176474094391,0.627451002597809,0.431372553110123);
#981=CARTESIAN_POINT('',(-165.0,115.0,-91.9));
#982=VECTOR('',#1428,1000.0);
#983=DRAUGHTING_PRE_DEFINED_CURVE_FONT('continuous');
#984=COLOUR_RGB('',0.941176474094391,0.627451002597809,0.431372553110123);
#985=CARTESIAN_POINT('',(160.0,32.0,-91.9));
#986=AXIS2_PLACEMENT_3D('',#1429,#1430,#1431);
#987=DRAUGHTING_PRE_DEFINED_CURVE_FONT('continuous');
#988=COLOUR_RGB('',0.941176474094391,0.627451002597809,0.431372553110123);
#989=CARTESIAN_POINT('',(160.0,-32.0,-91.9));
#990=AXIS2_PLACEMENT_3D('',#1432,#1433,#1434);
#991=DRAUGHTING_PRE_DEFINED_CURVE_FONT('continuous');
#992=COLOUR_RGB('',0.941176474094391,0.627451002597809,0.431372553110123);
#993=CARTESIAN_POINT('',(-128.0,-32.0,-91.9));
#994=AXIS2_PLACEMENT_3D('',#1435,#1436,#1437);
#995=DRAUGHTING_PRE_DEFINED_CURVE_FONT('continuous');
#996=COLOUR_RGB('',0.941176474094391,0.627451002597809,0.431372553110123);
#997=CARTESIAN_POINT('',(-160.0,32.0,-91.9));
#998=AXIS2_PLACEMENT_3D('',#1438,#1439,#1440);
#999=DRAUGHTING_PRE_DEFINED_CURVE_FONT('continuous');
#1000=COLOUR_RGB('',0.941176474094391,0.627451002597809,0.431372553110123);
#1001=CARTESIAN_POINT('',(-152.0,32.0,-66.9));
#1002=AXIS2_PLACEMENT_3D('',#1441,#1442,#1443);
#1003=DRAUGHTING_PRE_DEFINED_CURVE_FONT('continuous');
#1004=COLOUR_RGB('',0.941176474094391,0.627451002597809,0.431372553110123);
#1005=CARTESIAN_POINT('',(-165.0,115.0,-91.9));
#1006=VECTOR('',#1444,1000.0);
#1007=DRAUGHTING_PRE_DEFINED_CURVE_FONT('continuous');
#1008=COLOUR_RGB('',0.941176474094391,0.627451002597809,0.431372553110123);
#1009=CARTESIAN_POINT('',(-165.0,-115.0,-91.9));
#1010=VECTOR('',#1445,1000.0);
#1011=DRAUGHTING_PRE_DEFINED_CURVE_FONT('continuous');
#1012=COLOUR_RGB('',0.941176474094391,0.627451002597809,0.431372553110123);
#1013=CARTESIAN_POINT('',(165.0,-115.0,-91.9));
#1014=VECTOR('',#1446,1000.0);
#1015=DRAUGHTING_PRE_DEFINED_CURVE_FONT('continuous');
#1016=COLOUR_RGB('',0.941176474094391,0.627451002597809,0.431372553110123);
#1017=CARTESIAN_POINT('',(165.0,115.0,-91.9));
#1018=VECTOR('',#1447,1000.0);
#1019=DRAUGHTING_PRE_DEFINED_CURVE_FONT('continuous');
#1020=COLOUR_RGB('',0.941176474094391,0.627451002597809,0.431372553110123);
#1021=CARTESIAN_POINT('',(152.0,-32.0,-66.9));
#1022=AXIS2_PLACEMENT_3D('',#1448,#1449,#1450);
#1023=DRAUGHTING_PRE_DEFINED_CURVE_FONT('continuous');
#1024=COLOUR_RGB('',0.941176474094391,0.627451002597809,0.431372553110123);
#1025=CARTESIAN_POINT('',(152.0,32.0,-66.9));
#1026=AXIS2_PLACEMENT_3D('',#1451,#1452,#1453);
#1027=DRAUGHTING_PRE_DEFINED_CURVE_FONT('continuous');
#1028=COLOUR_RGB('',0.941176474094391,0.627451002597809,0.431372553110123);
#1029=CARTESIAN_POINT('',(-136.0,-32.0,-66.9));
#1030=AXIS2_PLACEMENT_3D('',#1454,#1455,#1456);
#1031=DRAUGHTING_PRE_DEFINED_CURVE_FONT('continuous');
#1032=COLOUR_RGB('',0.941176474094391,0.627451002597809,0.431372553110123);
#1033=CARTESIAN_POINT('',(-1.58865975929956E-010,16.3171688715744,-61.9));
#1034=CARTESIAN_POINT('',(-1.41817224630358E-010,16.3171688725326,-61.9));
#1035=VECTOR('',#1457,1000.0);
#1036=DRAUGHTING_PRE_DEFINED_CURVE_FONT('continuous');
#1037=COLOUR_RGB('',0.941176474094391,0.627451002597809,0.431372553110123);
#1038=CARTESIAN_POINT('',(-2.08166817117217E-014,-16.3171688720806,-61.9));
#1039=AXIS2_PLACEMENT_3D('',#1458,#1459,#1460);
#1040=DRAUGHTING_PRE_DEFINED_CURVE_FONT('continuous');
#1041=COLOUR_RGB('',0.941176474094391,0.627451002597809,0.431372553110123);
#1042=CARTESIAN_POINT('',(1.07441167074285E-010,-16.3171688717383,-61.9));
#1043=VECTOR('',#1461,1000.0);
#1044=DRAUGHTING_PRE_DEFINED_CURVE_FONT('continuous');
#1045=COLOUR_RGB('',0.941176474094391,0.627451002597809,0.431372553110123);
#1046=AXIS2_PLACEMENT_3D('',#1462,#1463,#1464);
#1047=DRAUGHTING_PRE_DEFINED_CURVE_FONT('continuous');
#1048=COLOUR_RGB('',0.941176474094391,0.627451002597809,0.431372553110123);
#1049=CARTESIAN_POINT('',(146.5,54.0,-68.9));
#1050=AXIS2_PLACEMENT_3D('',#1465,#1466,#1467);
#1051=DRAUGHTING_PRE_DEFINED_CURVE_FONT('continuous');
#1052=COLOUR_RGB('',0.941176474094391,0.627451002597809,0.431372553110123);
#1053=CARTESIAN_POINT('',(-146.5,-54.0,-68.9));
#1054=AXIS2_PLACEMENT_3D('',#1468,#1469,#1470);
#1055=DRAUGHTING_PRE_DEFINED_CURVE_FONT('continuous');
#1056=COLOUR_RGB('',0.941176474094391,0.627451002597809,0.431372553110123);
#1057=CARTESIAN_POINT('',(-160.0,32.0,-66.9));
#1058=AXIS2_PLACEMENT_3D('',#1471,#1472,#1473);
#1059=DRAUGHTING_PRE_DEFINED_CURVE_FONT('continuous');
#1060=COLOUR_RGB('',0.941176474094391,0.627451002597809,0.431372553110123);
#1061=CARTESIAN_POINT('',(160.0,-32.0,-66.9));
#1062=AXIS2_PLACEMENT_3D('',#1474,#1475,#1476);
#1063=DRAUGHTING_PRE_DEFINED_CURVE_FONT('continuous');
#1064=COLOUR_RGB('',0.941176474094391,0.627451002597809,0.431372553110123);
#1065=CARTESIAN_POINT('',(160.0,32.0,-66.9));
#1066=AXIS2_PLACEMENT_3D('',#1477,#1478,#1479);
#1067=DRAUGHTING_PRE_DEFINED_CURVE_FONT('continuous');
#1068=COLOUR_RGB('',0.941176474094391,0.627451002597809,0.431372553110123);
#1069=CARTESIAN_POINT('',(-128.0,-32.0,-66.9));
#1070=AXIS2_PLACEMENT_3D('',#1480,#1481,#1482);
#1071=SURFACE_SIDE_STYLE('',(#1483));
#1073=SURFACE_STYLE_FILL_AREA(#1484);
#1074=ORIENTED_EDGE('',*,*,#194,.T.);
#1075=ORIENTED_EDGE('',*,*,#196,.F.);
#1076=ORIENTED_EDGE('',*,*,#198,.F.);
#1077=ORIENTED_EDGE('',*,*,#200,.F.);
#1078=ORIENTED_EDGE('',*,*,#202,.F.);
#1079=ORIENTED_EDGE('',*,*,#204,.T.);
#1080=ORIENTED_EDGE('',*,*,#206,.T.);
#1081=ORIENTED_EDGE('',*,*,#208,.F.);
#1082=ORIENTED_EDGE('',*,*,#210,.F.);
#1083=ORIENTED_EDGE('',*,*,#212,.T.);
#1084=ORIENTED_EDGE('',*,*,#214,.F.);
#1085=ORIENTED_EDGE('',*,*,#216,.T.);
#1086=ORIENTED_EDGE('',*,*,#218,.T.);
#1087=ORIENTED_EDGE('',*,*,#220,.T.);
#1088=ORIENTED_EDGE('',*,*,#222,.T.);
#1089=ORIENTED_EDGE('',*,*,#224,.T.);
#1090=ORIENTED_EDGE('',*,*,#226,.F.);
#1091=ORIENTED_EDGE('',*,*,#228,.F.);
#1092=ORIENTED_EDGE('',*,*,#230,.T.);
#1093=ORIENTED_EDGE('',*,*,#232,.F.);
#1094=CARTESIAN_POINT('',(133.0,-83.0,-41.9));
#1095=DIRECTION('',(0.0,0.0,-1.0));
#1096=DIRECTION('',(-1.0,0.0,0.0));
#1097=SURFACE_STYLE_FILL_AREA(#1485);
#1098=ORIENTED_EDGE('',*,*,#234,.T.);
#1099=ORIENTED_EDGE('',*,*,#232,.T.);
#1100=CARTESIAN_POINT('',(150.0,54.0,-43.9));
#1101=DIRECTION('',(0.0,0.0,-1.0));
#1102=DIRECTION('',(1.0,0.0,0.0));
#1103=SURFACE_STYLE_FILL_AREA(#1486);
#1104=ORIENTED_EDGE('',*,*,#236,.T.);
#1105=ORIENTED_EDGE('',*,*,#234,.F.);
#1106=CARTESIAN_POINT('',(150.0,54.0,-43.9));
#1107=DIRECTION('',(0.0,0.0,1.0));
#1108=DIRECTION('',(1.0,0.0,0.0));
#1109=SURFACE_STYLE_FILL_AREA(#1487);
#1110=ORIENTED_EDGE('',*,*,#238,.F.);
#1111=ORIENTED_EDGE('',*,*,#240,.T.);
#1112=CARTESIAN_POINT('',(-150.0,-54.0,-43.9));
#1113=DIRECTION('',(0.0,0.0,-1.0));
#1114=DIRECTION('',(-1.0,0.0,0.0));
#1115=SURFACE_STYLE_FILL_AREA(#1488);
#1116=ORIENTED_EDGE('',*,*,#242,.T.);
#1117=ORIENTED_EDGE('',*,*,#244,.F.);
#1118=ORIENTED_EDGE('',*,*,#246,.F.);
#1119=ORIENTED_EDGE('',*,*,#248,.T.);
#1120=ORIENTED_EDGE('',*,*,#250,.T.);
#1121=ORIENTED_EDGE('',*,*,#252,.F.);
#1122=ORIENTED_EDGE('',*,*,#254,.T.);
#1123=ORIENTED_EDGE('',*,*,#256,.F.);
#1124=ORIENTED_EDGE('',*,*,#258,.F.);
#1125=ORIENTED_EDGE('',*,*,#260,.F.);
#1126=ORIENTED_EDGE('',*,*,#262,.F.);
#1127=ORIENTED_EDGE('',*,*,#264,.F.);
#1128=ORIENTED_EDGE('',*,*,#266,.T.);
#1129=ORIENTED_EDGE('',*,*,#268,.T.);
#1130=ORIENTED_EDGE('',*,*,#270,.T.);
#1131=ORIENTED_EDGE('',*,*,#272,.F.);
#1132=CARTESIAN_POINT('',(133.0,-83.0,-91.9));
#1133=DIRECTION('',(0.0,0.0,-1.0));
#1134=DIRECTION('',(-1.0,0.0,0.0));
#1135=SURFACE_STYLE_FILL_AREA(#1489);
#1136=ORIENTED_EDGE('',*,*,#194,.F.);
#1137=ORIENTED_EDGE('',*,*,#274,.F.);
#1138=CARTESIAN_POINT('',(-144.0,32.0,20.0));
#1139=DIRECTION('',(0.0,-0.0,1.0));
#1140=DIRECTION('',(-1.0,0.0,0.0));
#1141=SURFACE_STYLE_FILL_AREA(#1490);
#1142=ORIENTED_EDGE('',*,*,#220,.F.);
#1143=ORIENTED_EDGE('',*,*,#276,.F.);
#1144=ORIENTED_EDGE('',*,*,#264,.T.);
#1145=ORIENTED_EDGE('',*,*,#278,.T.);
#1146=CARTESIAN_POINT('',(-165.0,115.0,-91.9));
#1147=DIRECTION('',(-1.0,0.0,0.0));
#1148=DIRECTION('',(0.0,0.0,1.0));
#1149=SURFACE_STYLE_FILL_AREA(#1491);
#1150=ORIENTED_EDGE('',*,*,#222,.F.);
#1151=ORIENTED_EDGE('',*,*,#278,.F.);
#1152=ORIENTED_EDGE('',*,*,#262,.T.);
#1153=ORIENTED_EDGE('',*,*,#280,.T.);
#1154=CARTESIAN_POINT('',(-165.0,-115.0,-91.9));
#1155=DIRECTION('',(0.0,-1.0,0.0));
#1156=DIRECTION('',(0.0,0.0,-1.0));
#1157=SURFACE_STYLE_FILL_AREA(#1492);
#1158=ORIENTED_EDGE('',*,*,#224,.F.);
#1159=ORIENTED_EDGE('',*,*,#280,.F.);
#1160=ORIENTED_EDGE('',*,*,#260,.T.);
#1161=ORIENTED_EDGE('',*,*,#282,.T.);
#1162=CARTESIAN_POINT('',(165.0,-115.0,-91.9));
#1163=DIRECTION('',(1.0,0.0,0.0));
#1164=DIRECTION('',(0.0,0.0,-1.0));
#1165=SURFACE_STYLE_FILL_AREA(#1493);
#1166=ORIENTED_EDGE('',*,*,#218,.F.);
#1167=ORIENTED_EDGE('',*,*,#282,.F.);
#1168=ORIENTED_EDGE('',*,*,#258,.T.);
#1169=ORIENTED_EDGE('',*,*,#276,.T.);
#1170=CARTESIAN_POINT('',(165.0,115.0,-91.9));
#1171=DIRECTION('',(0.0,1.0,0.0));
#1172=DIRECTION('',(0.0,0.0,1.0));
#1173=SURFACE_STYLE_FILL_AREA(#1494);
#1174=ORIENTED_EDGE('',*,*,#246,.T.);
#1175=ORIENTED_EDGE('',*,*,#206,.F.);
#1176=CARTESIAN_POINT('',(-80.0,90.0,-91.9));
#1177=DIRECTION('',(0.0,0.0,-1.0));
#1178=DIRECTION('',(1.0,0.0,0.0));
#1179=SURFACE_STYLE_FILL_AREA(#1495);
#1180=ORIENTED_EDGE('',*,*,#248,.F.);
#1181=ORIENTED_EDGE('',*,*,#208,.T.);
#1182=CARTESIAN_POINT('',(-80.0,-90.0,-91.9));
#1183=DIRECTION('',(0.0,0.0,-1.0));
#1184=DIRECTION('',(1.0,0.0,0.0));
#1185=SURFACE_STYLE_FILL_AREA(#1496);
#1186=ORIENTED_EDGE('',*,*,#244,.T.);
#1187=ORIENTED_EDGE('',*,*,#204,.F.);
#1188=CARTESIAN_POINT('',(80.0,-90.0,-91.9));
#1189=DIRECTION('',(0.0,0.0,-1.0));
#1190=DIRECTION('',(1.0,0.0,0.0));
#1191=SURFACE_STYLE_FILL_AREA(#1497);
#1192=ORIENTED_EDGE('',*,*,#254,.F.);
#1193=ORIENTED_EDGE('',*,*,#214,.T.);
#1194=CARTESIAN_POINT('',(80.0,90.0,-91.9));
#1195=DIRECTION('',(0.0,0.0,-1.0));
#1196=DIRECTION('',(1.0,0.0,0.0));
#1197=SURFACE_STYLE_FILL_AREA(#1498);
#1198=ORIENTED_EDGE('',*,*,#252,.T.);
#1199=ORIENTED_EDGE('',*,*,#212,.F.);
#1200=CARTESIAN_POINT('',(-133.0,83.0,-91.9));
#1201=DIRECTION('',(0.0,0.0,-1.0));
#1202=DIRECTION('',(1.0,0.0,0.0));
#1203=SURFACE_STYLE_FILL_AREA(#1499);
#1204=ORIENTED_EDGE('',*,*,#242,.F.);
#1205=ORIENTED_EDGE('',*,*,#202,.T.);
#1206=CARTESIAN_POINT('',(133.0,83.0,-91.9));
#1207=DIRECTION('',(0.0,0.0,-1.0));
#1208=DIRECTION('',(1.0,0.0,0.0));
#1209=SURFACE_STYLE_FILL_AREA(#1500);
#1210=ORIENTED_EDGE('',*,*,#256,.T.);
#1211=ORIENTED_EDGE('',*,*,#216,.F.);
#1212=CARTESIAN_POINT('',(133.0,-83.0,-91.9));
#1213=DIRECTION('',(0.0,0.0,-1.0));
#1214=DIRECTION('',(1.0,0.0,0.0));
#1215=SURFACE_STYLE_FILL_AREA(#1501);
#1216=ORIENTED_EDGE('',*,*,#240,.F.);
#1217=ORIENTED_EDGE('',*,*,#230,.F.);
#1218=CARTESIAN_POINT('',(-150.0,-54.0,-43.9));
#1219=DIRECTION('',(0.0,0.0,-1.0));
#1220=DIRECTION('',(1.0,0.0,0.0));
#1221=SURFACE_STYLE_FILL_AREA(#1502);
#1222=ORIENTED_EDGE('',*,*,#284,.F.);
#1223=ORIENTED_EDGE('',*,*,#196,.T.);
#1224=CARTESIAN_POINT('',(144.0,-32.0,20.0));
#1225=DIRECTION('',(0.0,-0.0,1.0));
#1226=DIRECTION('',(-1.0,0.0,0.0));
#1227=SURFACE_STYLE_FILL_AREA(#1503);
#1228=ORIENTED_EDGE('',*,*,#286,.F.);
#1229=ORIENTED_EDGE('',*,*,#198,.T.);
#1230=CARTESIAN_POINT('',(144.0,32.0,20.0));
#1231=DIRECTION('',(0.0,-0.0,1.0));
#1232=DIRECTION('',(-1.0,0.0,0.0));
#1233=SURFACE_STYLE_FILL_AREA(#1504);
#1234=ORIENTED_EDGE('',*,*,#288,.F.);
#1235=ORIENTED_EDGE('',*,*,#200,.T.);
#1236=CARTESIAN_POINT('',(-144.0,-32.0,20.0));
#1237=DIRECTION('',(0.0,-0.0,1.0));
#1238=DIRECTION('',(-1.0,0.0,0.0));
#1239=SURFACE_STYLE_FILL_AREA(#1505);
#1240=ORIENTED_EDGE('',*,*,#228,.T.);
#1241=ORIENTED_EDGE('',*,*,#290,.T.);
#1242=ORIENTED_EDGE('',*,*,#292,.F.);
#1243=ORIENTED_EDGE('',*,*,#294,.T.);
#1244=CARTESIAN_POINT('',(52.0,0.0,-61.9));
#1245=DIRECTION('',(0.0,0.0,-1.0));
#1246=DIRECTION('',(1.0,0.0,0.0));
#1247=SURFACE_STYLE_FILL_AREA(#1506);
#1248=ORIENTED_EDGE('',*,*,#296,.F.);
#1249=ORIENTED_EDGE('',*,*,#292,.T.);
#1250=CARTESIAN_POINT('',(-52.0,0.0,-61.9));
#1251=DIRECTION('',(0.0,0.0,1.0));
#1252=DIRECTION('',(1.0,0.0,0.0));
#1253=SURFACE_STYLE_FILL_AREA(#1507);
#1254=ORIENTED_EDGE('',*,*,#226,.T.);
#1255=ORIENTED_EDGE('',*,*,#294,.F.);
#1256=ORIENTED_EDGE('',*,*,#296,.T.);
#1257=ORIENTED_EDGE('',*,*,#290,.F.);
#1258=CARTESIAN_POINT('',(-52.0,0.0,-61.9));
#1259=DIRECTION('',(0.0,0.0,-1.0));
#1260=DIRECTION('',(1.0,0.0,0.0));
#1261=SURFACE_STYLE_FILL_AREA(#1508);
#1262=ORIENTED_EDGE('',*,*,#250,.F.);
#1263=ORIENTED_EDGE('',*,*,#210,.T.);
#1264=CARTESIAN_POINT('',(-133.0,-83.0,-91.9));
#1265=DIRECTION('',(0.0,0.0,-1.0));
#1266=DIRECTION('',(1.0,0.0,0.0));
#1267=SURFACE_STYLE_FILL_AREA(#1509);
#1268=ORIENTED_EDGE('',*,*,#298,.F.);
#1269=ORIENTED_EDGE('',*,*,#236,.F.);
#1270=CARTESIAN_POINT('',(150.0,54.0,-68.9));
#1271=DIRECTION('',(0.0,0.0,-1.0));
#1272=DIRECTION('',(1.0,0.0,0.0));
#1273=SURFACE_STYLE_FILL_AREA(#1510);
#1274=ORIENTED_EDGE('',*,*,#298,.T.);
#1275=CARTESIAN_POINT('',(150.0,54.0,-68.9));
#1276=DIRECTION('',(0.0,0.0,-1.0));
#1277=DIRECTION('',(-1.0,0.0,0.0));
#1278=SURFACE_STYLE_FILL_AREA(#1511);
#1279=ORIENTED_EDGE('',*,*,#300,.T.);
#1280=ORIENTED_EDGE('',*,*,#238,.T.);
#1281=CARTESIAN_POINT('',(-150.0,-54.0,-68.9));
#1282=DIRECTION('',(0.0,0.0,-1.0));
#1283=DIRECTION('',(1.0,0.0,0.0));
#1284=SURFACE_STYLE_FILL_AREA(#1512);
#1285=ORIENTED_EDGE('',*,*,#300,.F.);
#1286=CARTESIAN_POINT('',(-150.0,-54.0,-68.9));
#1287=DIRECTION('',(0.0,0.0,1.0));
#1288=DIRECTION('',(1.0,0.0,0.0));
#1289=SURFACE_STYLE_FILL_AREA(#1513);
#1290=ORIENTED_EDGE('',*,*,#302,.F.);
#1291=ORIENTED_EDGE('',*,*,#274,.T.);
#1292=CARTESIAN_POINT('',(-144.0,32.0,-66.9));
#1293=DIRECTION('',(0.0,0.0,-1.0));
#1294=DIRECTION('',(-1.0,0.0,0.0));
#1295=SURFACE_STYLE_FILL_AREA(#1514);
#1296=ORIENTED_EDGE('',*,*,#272,.T.);
#1297=ORIENTED_EDGE('',*,*,#302,.T.);
#1298=CARTESIAN_POINT('',(-144.0,32.0,-91.9));
#1299=DIRECTION('',(0.0,0.0,-1.0));
#1300=DIRECTION('',(1.0,0.0,0.0));
#1301=SURFACE_STYLE_FILL_AREA(#1515);
#1302=ORIENTED_EDGE('',*,*,#268,.F.);
#1303=ORIENTED_EDGE('',*,*,#304,.F.);
#1304=CARTESIAN_POINT('',(144.0,-32.0,-91.9));
#1305=DIRECTION('',(0.0,0.0,-1.0));
#1306=DIRECTION('',(1.0,0.0,0.0));
#1307=SURFACE_STYLE_FILL_AREA(#1516);
#1308=ORIENTED_EDGE('',*,*,#284,.T.);
#1309=ORIENTED_EDGE('',*,*,#304,.T.);
#1310=CARTESIAN_POINT('',(144.0,-32.0,-66.9));
#1311=DIRECTION('',(0.0,0.0,1.0));
#1312=DIRECTION('',(1.0,0.0,0.0));
#1313=SURFACE_STYLE_FILL_AREA(#1517);
#1314=ORIENTED_EDGE('',*,*,#266,.F.);
#1315=ORIENTED_EDGE('',*,*,#306,.F.);
#1316=CARTESIAN_POINT('',(144.0,32.0,-91.9));
#1317=DIRECTION('',(0.0,0.0,-1.0));
#1318=DIRECTION('',(1.0,0.0,0.0));
#1319=SURFACE_STYLE_FILL_AREA(#1518);
#1320=ORIENTED_EDGE('',*,*,#286,.T.);
#1321=ORIENTED_EDGE('',*,*,#306,.T.);
#1322=CARTESIAN_POINT('',(144.0,32.0,-66.9));
#1323=DIRECTION('',(0.0,0.0,1.0));
#1324=DIRECTION('',(1.0,0.0,0.0));
#1325=SURFACE_STYLE_FILL_AREA(#1519);
#1326=ORIENTED_EDGE('',*,*,#270,.F.);
#1327=ORIENTED_EDGE('',*,*,#308,.F.);
#1328=CARTESIAN_POINT('',(-144.0,-32.0,-91.9));
#1329=DIRECTION('',(0.0,0.0,-1.0));
#1330=DIRECTION('',(1.0,0.0,0.0));
#1331=SURFACE_STYLE_FILL_AREA(#1520);
#1332=ORIENTED_EDGE('',*,*,#288,.T.);
#1333=ORIENTED_EDGE('',*,*,#308,.T.);
#1334=CARTESIAN_POINT('',(-144.0,-32.0,-66.9));
#1335=DIRECTION('',(0.0,0.0,1.0));
#1336=DIRECTION('',(1.0,0.0,0.0));
#1337=CARTESIAN_POINT('',(-144.0,32.0,-41.9));
#1338=DIRECTION('',(0.0,0.0,-1.0));
#1339=DIRECTION('',(-1.0,0.0,0.0));
#1340=CARTESIAN_POINT('',(144.0,-32.0,-41.9));
#1341=DIRECTION('',(0.0,0.0,-1.0));
#1342=DIRECTION('',(-1.0,0.0,0.0));
#1343=CARTESIAN_POINT('',(144.0,32.0,-41.9));
#1344=DIRECTION('',(0.0,0.0,-1.0));
#1345=DIRECTION('',(-1.0,0.0,0.0));
#1346=CARTESIAN_POINT('',(-144.0,-32.0,-41.9));
#1347=DIRECTION('',(0.0,0.0,-1.0));
#1348=DIRECTION('',(-1.0,0.0,0.0));
#1349=CARTESIAN_POINT('',(133.0,83.0,-41.9));
#1350=DIRECTION('',(0.0,0.0,-1.0));
#1351=DIRECTION('',(-1.0,0.0,0.0));
#1352=CARTESIAN_POINT('',(80.0,-90.0,-41.9));
#1353=DIRECTION('',(0.0,0.0,-1.0));
#1354=DIRECTION('',(-1.0,0.0,0.0));
#1355=CARTESIAN_POINT('',(-80.0,90.0,-41.9));
#1356=DIRECTION('',(0.0,0.0,-1.0));
#1357=DIRECTION('',(-1.0,0.0,0.0));
#1358=CARTESIAN_POINT('',(-80.0,-90.0,-41.9));
#1359=DIRECTION('',(0.0,0.0,-1.0));
#1360=DIRECTION('',(-1.0,0.0,0.0));
#1361=CARTESIAN_POINT('',(-133.0,-83.0,-41.9));
#1362=DIRECTION('',(0.0,0.0,-1.0));
#1363=DIRECTION('',(-1.0,0.0,0.0));
#1364=CARTESIAN_POINT('',(-133.0,83.0,-41.9));
#1365=DIRECTION('',(0.0,0.0,-1.0));
#1366=DIRECTION('',(-1.0,0.0,0.0));
#1367=CARTESIAN_POINT('',(80.0,90.0,-41.9));
#1368=DIRECTION('',(0.0,0.0,-1.0));
#1369=DIRECTION('',(-1.0,0.0,0.0));
#1370=CARTESIAN_POINT('',(133.0,-83.0,-41.9));
#1371=DIRECTION('',(0.0,0.0,-1.0));
#1372=DIRECTION('',(-1.0,0.0,0.0));
#1373=DIRECTION('',(-1.0,0.0,0.0));
#1374=DIRECTION('',(0.0,-1.0,0.0));
#1375=DIRECTION('',(1.0,0.0,0.0));
#1376=DIRECTION('',(0.0,1.0,0.0));
#1377=CARTESIAN_POINT('',(-52.0,0.0,-41.9));
#1378=DIRECTION('',(0.0,0.0,1.0));
#1379=DIRECTION('',(1.0,0.0,0.0));
#1380=CARTESIAN_POINT('',(52.0,0.0,-41.9));
#1381=DIRECTION('',(0.0,0.0,1.0));
#1382=DIRECTION('',(-1.0,1.22464679914735E-016,0.0));
#1383=CARTESIAN_POINT('',(-150.0,-54.0,-41.9));
#1384=DIRECTION('',(0.0,0.0,-1.0));
#1385=DIRECTION('',(-1.0,0.0,0.0));
#1386=CARTESIAN_POINT('',(150.0,54.0,-41.9));
#1387=DIRECTION('',(0.0,0.0,1.0));
#1388=DIRECTION('',(-1.0,1.22464679914735E-016,0.0));
#1389=CARTESIAN_POINT('',(150.0,54.0,-43.9));
#1390=DIRECTION('',(0.0,0.0,1.0));
#1391=DIRECTION('',(-1.0,1.22464679914735E-016,0.0));
#1392=CARTESIAN_POINT('',(150.0,54.0,-43.9));
#1393=DIRECTION('',(0.0,0.0,-1.0));
#1394=DIRECTION('',(-1.0,0.0,0.0));
#1395=CARTESIAN_POINT('',(-150.0,-54.0,-43.9));
#1396=DIRECTION('',(0.0,0.0,1.0));
#1397=DIRECTION('',(1.0,0.0,0.0));
#1398=CARTESIAN_POINT('',(-150.0,-54.0,-43.9));
#1399=DIRECTION('',(0.0,0.0,-1.0));
#1400=DIRECTION('',(-1.0,0.0,0.0));
#1401=CARTESIAN_POINT('',(133.0,83.0,-91.9));
#1402=DIRECTION('',(0.0,0.0,-1.0));
#1403=DIRECTION('',(-1.0,0.0,0.0));
#1404=CARTESIAN_POINT('',(80.0,-90.0,-91.9));
#1405=DIRECTION('',(0.0,0.0,-1.0));
#1406=DIRECTION('',(-1.0,0.0,0.0));
#1407=CARTESIAN_POINT('',(-80.0,90.0,-91.9));
#1408=DIRECTION('',(0.0,0.0,-1.0));
#1409=DIRECTION('',(-1.0,0.0,0.0));
#1410=CARTESIAN_POINT('',(-80.0,-90.0,-91.9));
#1411=DIRECTION('',(0.0,0.0,-1.0));
#1412=DIRECTION('',(-1.0,0.0,0.0));
#1413=CARTESIAN_POINT('',(-133.0,-83.0,-91.9));
#1414=DIRECTION('',(0.0,0.0,-1.0));
#1415=DIRECTION('',(-1.0,0.0,0.0));
#1416=CARTESIAN_POINT('',(-133.0,83.0,-91.9));
#1417=DIRECTION('',(0.0,0.0,-1.0));
#1418=DIRECTION('',(-1.0,0.0,0.0));
#1419=CARTESIAN_POINT('',(80.0,90.0,-91.9));
#1420=DIRECTION('',(0.0,0.0,-1.0));
#1421=DIRECTION('',(-1.0,0.0,0.0));
#1422=CARTESIAN_POINT('',(133.0,-83.0,-91.9));
#1423=DIRECTION('',(0.0,0.0,-1.0));
#1424=DIRECTION('',(-1.0,0.0,0.0));
#1425=DIRECTION('',(-1.0,0.0,0.0));
#1426=DIRECTION('',(0.0,1.0,0.0));
#1427=DIRECTION('',(1.0,0.0,0.0));
#1428=DIRECTION('',(0.0,-1.0,0.0));
#1429=CARTESIAN_POINT('',(144.0,32.0,-91.9));
#1430=DIRECTION('',(0.0,0.0,1.0));
#1431=DIRECTION('',(1.0,0.0,0.0));
#1432=CARTESIAN_POINT('',(144.0,-32.0,-91.9));
#1433=DIRECTION('',(0.0,0.0,1.0));
#1434=DIRECTION('',(1.0,0.0,0.0));
#1435=CARTESIAN_POINT('',(-144.0,-32.0,-91.9));
#1436=DIRECTION('',(0.0,0.0,1.0));
#1437=DIRECTION('',(1.0,0.0,0.0));
#1438=CARTESIAN_POINT('',(-144.0,32.0,-91.9));
#1439=DIRECTION('',(0.0,0.0,-1.0));
#1440=DIRECTION('',(-1.0,0.0,0.0));
#1441=CARTESIAN_POINT('',(-144.0,32.0,-66.9));
#1442=DIRECTION('',(0.0,0.0,-1.0));
#1443=DIRECTION('',(-1.0,0.0,0.0));
#1444=DIRECTION('',(0.0,0.0,1.0));
#1445=DIRECTION('',(0.0,0.0,1.0));
#1446=DIRECTION('',(0.0,0.0,1.0));
#1447=DIRECTION('',(0.0,0.0,1.0));
#1448=CARTESIAN_POINT('',(144.0,-32.0,-66.9));
#1449=DIRECTION('',(0.0,0.0,1.0));
#1450=DIRECTION('',(1.0,0.0,0.0));
#1451=CARTESIAN_POINT('',(144.0,32.0,-66.9));
#1452=DIRECTION('',(0.0,0.0,1.0));
#1453=DIRECTION('',(1.0,0.0,0.0));
#1454=CARTESIAN_POINT('',(-144.0,-32.0,-66.9));
#1455=DIRECTION('',(0.0,0.0,1.0));
#1456=DIRECTION('',(1.0,0.0,0.0));
#1457=DIRECTION('',(0.0,0.0,1.0));
#1458=CARTESIAN_POINT('',(52.0,0.0,-61.9));
#1459=DIRECTION('',(0.0,0.0,1.0));
#1460=DIRECTION('',(-1.0,1.22464679914735E-016,0.0));
#1461=DIRECTION('',(0.0,0.0,1.0));
#1462=CARTESIAN_POINT('',(-52.0,0.0,-61.9));
#1463=DIRECTION('',(0.0,0.0,1.0));
#1464=DIRECTION('',(1.0,0.0,0.0));
#1465=CARTESIAN_POINT('',(150.0,54.0,-68.9));
#1466=DIRECTION('',(0.0,0.0,-1.0));
#1467=DIRECTION('',(-1.0,0.0,0.0));
#1468=CARTESIAN_POINT('',(-150.0,-54.0,-68.9));
#1469=DIRECTION('',(0.0,0.0,1.0));
#1470=DIRECTION('',(1.0,0.0,0.0));
#1471=CARTESIAN_POINT('',(-144.0,32.0,-66.9));
#1472=DIRECTION('',(0.0,0.0,-1.0));
#1473=DIRECTION('',(-1.0,0.0,0.0));
#1474=CARTESIAN_POINT('',(144.0,-32.0,-66.9));
#1475=DIRECTION('',(0.0,0.0,1.0));
#1476=DIRECTION('',(1.0,0.0,0.0));
#1477=CARTESIAN_POINT('',(144.0,32.0,-66.9));
#1478=DIRECTION('',(0.0,0.0,1.0));
#1479=DIRECTION('',(1.0,0.0,0.0));
#1480=CARTESIAN_POINT('',(-144.0,-32.0,-66.9));
#1481=DIRECTION('',(0.0,0.0,1.0));
#1482=DIRECTION('',(1.0,0.0,0.0));
#1483=SURFACE_STYLE_FILL_AREA(#1521);
#1484=FILL_AREA_STYLE('',(#1522));
#1485=FILL_AREA_STYLE('',(#1523));
#1486=FILL_AREA_STYLE('',(#1524));
#1487=FILL_AREA_STYLE('',(#1525));
#1488=FILL_AREA_STYLE('',(#1526));
#1489=FILL_AREA_STYLE('',(#1527));
#1490=FILL_AREA_STYLE('',(#1528));
#1491=FILL_AREA_STYLE('',(#1529));
#1492=FILL_AREA_STYLE('',(#1530));
#1493=FILL_AREA_STYLE('',(#1531));
#1494=FILL_AREA_STYLE('',(#1532));
#1495=FILL_AREA_STYLE('',(#1533));
#1496=FILL_AREA_STYLE('',(#1534));
#1497=FILL_AREA_STYLE('',(#1535));
#1498=FILL_AREA_STYLE('',(#1536));
#1499=FILL_AREA_STYLE('',(#1537));
#1500=FILL_AREA_STYLE('',(#1538));
#1501=FILL_AREA_STYLE('',(#1539));
#1502=FILL_AREA_STYLE('',(#1540));
#1503=FILL_AREA_STYLE('',(#1541));
#1504=FILL_AREA_STYLE('',(#1542));
#1505=FILL_AREA_STYLE('',(#1543));
#1506=FILL_AREA_STYLE('',(#1544));
#1507=FILL_AREA_STYLE('',(#1545));
#1508=FILL_AREA_STYLE('',(#1546));
#1509=FILL_AREA_STYLE('',(#1547));
#1510=FILL_AREA_STYLE('',(#1548));
#1511=FILL_AREA_STYLE('',(#1549));
#1512=FILL_AREA_STYLE('',(#1550));
#1513=FILL_AREA_STYLE('',(#1551));
#1514=FILL_AREA_STYLE('',(#1552));
#1515=FILL_AREA_STYLE('',(#1553));
#1516=FILL_AREA_STYLE('',(#1554));
#1517=FILL_AREA_STYLE('',(#1555));
#1518=FILL_AREA_STYLE('',(#1556));
#1519=FILL_AREA_STYLE('',(#1557));
#1520=FILL_AREA_STYLE('',(#1558));
#1521=FILL_AREA_STYLE('',(#1559));
#1522=FILL_AREA_STYLE_COLOUR('',#1560);
#1523=FILL_AREA_STYLE_COLOUR('',#1561);
#1524=FILL_AREA_STYLE_COLOUR('',#1562);
#1525=FILL_AREA_STYLE_COLOUR('',#1563);
#1526=FILL_AREA_STYLE_COLOUR('',#1564);
#1527=FILL_AREA_STYLE_COLOUR('',#1565);
#1528=FILL_AREA_STYLE_COLOUR('',#1566);
#1529=FILL_AREA_STYLE_COLOUR('',#1567);
#1530=FILL_AREA_STYLE_COLOUR('',#1568);
#1531=FILL_AREA_STYLE_COLOUR('',#1569);
#1532=FILL_AREA_STYLE_COLOUR('',#1570);
#1533=FILL_AREA_STYLE_COLOUR('',#1571);
#1534=FILL_AREA_STYLE_COLOUR('',#1572);
#1535=FILL_AREA_STYLE_COLOUR('',#1573);
#1536=FILL_AREA_STYLE_COLOUR('',#1574);
#1537=FILL_AREA_STYLE_COLOUR('',#1575);
#1538=FILL_AREA_STYLE_COLOUR('',#1576);
#1539=FILL_AREA_STYLE_COLOUR('',#1577);
#1540=FILL_AREA_STYLE_COLOUR('',#1578);
#1541=FILL_AREA_STYLE_COLOUR('',#1579);
#1542=FILL_AREA_STYLE_COLOUR('',#1580);
#1543=FILL_AREA_STYLE_COLOUR('',#1581);
#1544=FILL_AREA_STYLE_COLOUR('',#1582);
#1545=FILL_AREA_STYLE_COLOUR('',#1583);
#1546=FILL_AREA_STYLE_COLOUR('',#1584);
#1547=FILL_AREA_STYLE_COLOUR('',#1585);
#1548=FILL_AREA_STYLE_COLOUR('',#1586);
#1549=FILL_AREA_STYLE_COLOUR('',#1587);
#1550=FILL_AREA_STYLE_COLOUR('',#1588);
#1551=FILL_AREA_STYLE_COLOUR('',#1589);
#1552=FILL_AREA_STYLE_COLOUR('',#1590);
#1553=FILL_AREA_STYLE_COLOUR('',#1591);
#1554=FILL_AREA_STYLE_COLOUR('',#1592);
#1555=FILL_AREA_STYLE_COLOUR('',#1593);
#1556=FILL_AREA_STYLE_COLOUR('',#1594);
#1557=FILL_AREA_STYLE_COLOUR('',#1595);
#1558=FILL_AREA_STYLE_COLOUR('',#1596);
#1559=FILL_AREA_STYLE_COLOUR('',#1597);
#1560=COLOUR_RGB('',0.592156887054443,0.666666686534882,0.682352960109711);
#1561=COLOUR_RGB('',0.592156887054443,0.666666686534882,0.682352960109711);
#1562=COLOUR_RGB('',0.592156887054443,0.666666686534882,0.682352960109711);
#1563=COLOUR_RGB('',0.592156887054443,0.666666686534882,0.682352960109711);
#1564=COLOUR_RGB('',0.592156887054443,0.666666686534882,0.682352960109711);
#1565=COLOUR_RGB('',0.592156887054443,0.666666686534882,0.682352960109711);
#1566=COLOUR_RGB('',0.592156887054443,0.666666686534882,0.682352960109711);
#1567=COLOUR_RGB('',0.592156887054443,0.666666686534882,0.682352960109711);
#1568=COLOUR_RGB('',0.592156887054443,0.666666686534882,0.682352960109711);
#1569=COLOUR_RGB('',0.592156887054443,0.666666686534882,0.682352960109711);
#1570=COLOUR_RGB('',0.592156887054443,0.666666686534882,0.682352960109711);
#1571=COLOUR_RGB('',0.592156887054443,0.666666686534882,0.682352960109711);
#1572=COLOUR_RGB('',0.592156887054443,0.666666686534882,0.682352960109711);
#1573=COLOUR_RGB('',0.592156887054443,0.666666686534882,0.682352960109711);
#1574=COLOUR_RGB('',0.592156887054443,0.666666686534882,0.682352960109711);
#1575=COLOUR_RGB('',0.592156887054443,0.666666686534882,0.682352960109711);
#1576=COLOUR_RGB('',0.592156887054443,0.666666686534882,0.682352960109711);
#1577=COLOUR_RGB('',0.592156887054443,0.666666686534882,0.682352960109711);
#1578=COLOUR_RGB('',0.592156887054443,0.666666686534882,0.682352960109711);
#1579=COLOUR_RGB('',0.592156887054443,0.666666686534882,0.682352960109711);
#1580=COLOUR_RGB('',0.592156887054443,0.666666686534882,0.682352960109711);
#1581=COLOUR_RGB('',0.592156887054443,0.666666686534882,0.682352960109711);
#1582=COLOUR_RGB('',0.592156887054443,0.666666686534882,0.682352960109711);
#1583=COLOUR_RGB('',0.592156887054443,0.666666686534882,0.682352960109711);
#1584=COLOUR_RGB('',0.592156887054443,0.666666686534882,0.682352960109711);
#1585=COLOUR_RGB('',0.592156887054443,0.666666686534882,0.682352960109711);
#1586=COLOUR_RGB('',0.592156887054443,0.666666686534882,0.682352960109711);
#1587=COLOUR_RGB('',0.592156887054443,0.666666686534882,0.682352960109711);
#1588=COLOUR_RGB('',0.592156887054443,0.666666686534882,0.682352960109711);
#1589=COLOUR_RGB('',0.592156887054443,0.666666686534882,0.682352960109711);
#1590=COLOUR_RGB('',0.592156887054443,0.666666686534882,0.682352960109711);
#1591=COLOUR_RGB('',0.592156887054443,0.666666686534882,0.682352960109711);
#1592=COLOUR_RGB('',0.592156887054443,0.666666686534882,0.682352960109711);
#1593=COLOUR_RGB('',0.592156887054443,0.666666686534882,0.682352960109711);
#1594=COLOUR_RGB('',0.592156887054443,0.666666686534882,0.682352960109711);
#1595=COLOUR_RGB('',0.592156887054443,0.666666686534882,0.682352960109711);
#1596=COLOUR_RGB('',0.592156887054443,0.666666686534882,0.682352960109711);
#1597=COLOUR_RGB('',0.941176474094391,0.627451002597809,0.431372553110123);
ENDSEC;
END-ISO-10303-21;
